<?xml version="1.0" encoding="UTF-8" standalone="no"?>
<svg width="97px" height="31px" viewBox="0 0 97 31" version="1.1" xmlns="http://www.w3.org/2000/svg" xmlns:xlink="http://www.w3.org/1999/xlink" xmlns:sketch="http://www.bohemiancoding.com/sketch/ns">
    <!-- Generator: Sketch 3.2 (9961) - http://www.bohemiancoding.com/sketch -->
    <title>Slice 1</title>
    <desc>Created with Sketch.</desc>
    <defs></defs>
    <g id="Page-1" stroke="none" stroke-width="1" fill="none" fill-rule="evenodd" sketch:type="MSPage">
        <g id="NPR-Logo" sketch:type="MSLayerGroup">
            <g id="Page-1" sketch:type="MSShapeGroup">
                <path d="M0.0487365854,0.150977099 L30.8717878,0.150977099 L30.8717878,30.9827252 L0.0487365854,30.9827252 L0.0487365854,0.150977099 L0.0487365854,0.150977099 Z" id="Fill-1" fill="#E1564C"></path>
                <path d="M30.8717878,0.150977099 L61.697678,0.150977099 L61.697678,30.9827252 L30.8717878,30.9827252 L30.8717878,0.150977099 L30.8717878,0.150977099 Z" id="Fill-2" fill="#000412"></path>
                <path d="M61.697678,0.150977099 L92.5221488,0.150977099 L92.5221488,30.9827252 L61.697678,30.9827252 L61.697678,0.150977099 L61.697678,0.150977099 Z" id="Fill-3" fill="#4B83B8"></path>
                <path d="M18.7519927,23.4322137 L18.7519927,14.3340687 C18.7519927,12.9920763 18.4941146,12.0116718 17.9771756,11.3947481 C17.46,10.7768779 16.6172829,10.4685344 15.4459488,10.4685344 C14.9039317,10.4685344 14.3257171,10.6202214 13.7103585,10.9238321 C13.0961829,11.2281527 12.6152049,11.6053588 12.2714463,12.0561603 L12.2714463,23.4322137 L8.58946829,23.4322137 L8.58946829,7.62670992 L11.2441927,7.62670992 L11.9220098,9.10051145 C12.9241854,7.94144275 14.4047366,7.36119847 16.3622439,7.36119847 C18.2376561,7.36119847 19.7196268,7.92274809 20.8065,9.04726718 C21.8933732,10.1717863 22.4365732,11.7407176 22.4365732,13.7538244 L22.4365732,23.4322137 L18.7519927,23.4322137" id="Fill-4" fill="#FFFFFF"></path>
                <path d="M45.9943244,23.7433969 C48.4034732,23.7433969 50.3039634,23.0453053 51.6957951,21.6491221 C53.0890463,20.2527023 53.783661,18.262313 53.783661,15.6770076 C53.783661,10.1329771 51.2661561,7.36119847 46.2299634,7.36119847 C44.8823732,7.36119847 43.7472366,7.80348092 42.8212415,8.68875573 L42.8212415,7.62670992 L39.1378439,7.62670992 L39.1378439,29.6031069 L42.8212415,29.6031069 L42.8212415,23.048855 C43.7749171,23.5119618 44.8326902,23.7433969 45.9943244,23.7433969 L45.9943244,23.7433969 L45.9943244,23.7433969 Z M45.1721902,10.5127863 C46.8689805,10.5127863 48.0847927,10.893542 48.8208098,11.6531603 C49.5554073,12.4130153 49.9214049,13.7247176 49.9214049,15.5882672 C49.9214049,17.3346794 49.5528049,18.6118321 48.8111098,19.4216183 C48.0722537,20.2299847 46.855022,20.6346412 45.1582317,20.6346412 C44.2670146,20.6346412 43.487939,20.3651069 42.8212415,19.8258015 L42.8212415,11.5424122 C43.507339,10.856626 44.2906732,10.5127863 45.1721902,10.5127863 L45.1721902,10.5127863 L45.1721902,10.5127863 Z" id="Fill-5" fill="#FFFFFF"></path>
                <path d="M81.1868707,11.0897176 C80.5310561,10.6758321 79.814439,10.4685344 79.0325244,10.4685344 C78.1801073,10.4685344 77.4244537,10.855916 76.7660366,11.6297328 C76.103361,12.4040229 75.7749805,13.3489313 75.7749805,14.4658779 L75.7749805,23.4322137 L72.0901634,23.4322137 L72.0901634,7.62670992 L75.7749805,7.62670992 L75.7749805,9.13671756 C76.8008146,7.95327481 78.1661488,7.36119847 79.8683805,7.36119847 C81.1201537,7.36119847 82.0780878,7.55240458 82.7436024,7.93529008 L81.1868707,11.0897176" id="Fill-6" fill="#FFFFFF"></path>
                <path d="M95.190122,1.72345802 C95.4789927,1.72345802 95.7669171,1.71375573 95.7669171,1.38837405 C95.7669171,1.12073282 95.5416878,1.05825954 95.3098341,1.05825954 L94.8773561,1.05825954 L94.8773561,1.72345802 L95.190122,1.72345802 L95.190122,1.72345802 Z M94.8773561,2.77651145 L94.6417171,2.77651145 L94.6417171,0.856877863 L95.377261,0.856877863 C95.809739,0.856877863 96.0025561,1.04453435 96.0025561,1.38837405 C96.0025561,1.72748092 95.7778,1.87916794 95.5206317,1.92341985 L96.0898561,2.77651145 L95.8149439,2.77651145 L95.2738732,1.92341985 L94.8773561,1.92341985 L94.8773561,2.77651145 L94.8773561,2.77651145 Z M93.8437146,1.81645802 C93.8437146,2.61109924 94.4401463,3.24056489 95.2433537,3.24056489 C96.045378,3.24056489 96.6434659,2.61109924 96.6434659,1.81645802 C96.6434659,1.02205344 96.045378,0.39329771 95.2433537,0.39329771 C94.4401463,0.39329771 93.8437146,1.02205344 93.8437146,1.81645802 L93.8437146,1.81645802 L93.8437146,1.81645802 Z M96.9020537,1.81645802 C96.9020537,2.75000763 96.1809415,3.47767939 95.2433537,3.47767939 C94.3057659,3.47767939 93.5834707,2.75000763 93.5834707,1.81645802 C93.5834707,0.884091603 94.3057659,0.156183206 95.2433537,0.156183206 C96.1809415,0.156183206 96.9020537,0.884091603 96.9020537,1.81645802 L96.9020537,1.81645802 L96.9020537,1.81645802 Z" id="Fill-7" fill="#1A1918"></path>
            </g>
        </g>
    </g>
</svg>