<?xml version="1.0" encoding="utf-8"?>
<!-- Generator: Adobe Illustrator 18.1.1, SVG Export Plug-In . SVG Version: 6.00 Build 0)  -->
<svg version="1.1" id="Layer_1" xmlns="http://www.w3.org/2000/svg" xmlns:xlink="http://www.w3.org/1999/xlink" x="0px" y="0px"
	 viewBox="0 0 787 504.1" enable-background="new 0 0 787 504.1" xml:space="preserve">
<g>
	<rect x="0.4" y="0.4" fill="#FFFFFF" width="497.3" height="503.4"/>
	<path fill="#6D6E71" d="M498,504.1H0V0h498V504.1z M0.8,503.4h496.5V0.8H0.8V503.4z"/>
</g>
<g>
	<path fill="#333333" d="M23.8,320.8h4.3v7.7h7.8v-7.7h4.3v19.3h-4.3v-7.8h-7.8v7.8h-4.3V320.8z"/>
	<path fill="#333333" d="M43.7,332.8L43.7,332.8c0-4.3,3.4-7.8,8-7.8c4.6,0,8,3.4,8,7.7v0.1c0,4.3-3.4,7.7-8,7.7
		C47.1,340.5,43.7,337.1,43.7,332.8z M55.5,332.8L55.5,332.8c0-2.2-1.6-4.1-3.9-4.1c-2.4,0-3.8,1.9-3.8,4v0.1c0,2.2,1.6,4.1,3.9,4.1
		C54.1,336.9,55.5,335,55.5,332.8z"/>
	<path fill="#333333" d="M60.8,325.4h4.3l2.4,9l2.8-9h3.6l2.8,9.1l2.4-9h4.2l-4.6,14.9h-3.8l-2.8-9.1l-2.9,9.1h-3.8L60.8,325.4z"/>
	<path fill="#333333" d="M99,324.8h-5.9v-3.9h16v3.9h-5.9v15.4H99V324.8z"/>
	<path fill="#333333" d="M108.4,332.8L108.4,332.8c0-4.3,3.2-7.8,7.8-7.8c2.8,0,4.5,0.9,5.9,2.5l-2.6,2.8c-0.9-1-1.9-1.6-3.4-1.6
		c-2.1,0-3.6,1.9-3.6,4v0.1c0,2.3,1.5,4.1,3.8,4.1c1.4,0,2.4-0.6,3.4-1.6l2.5,2.5c-1.4,1.6-3.1,2.7-6,2.7
		C111.6,340.5,108.4,337.1,108.4,332.8z"/>
	<path fill="#333333" d="M124.9,320h4.2v7.5c1-1.2,2.2-2.4,4.3-2.4c3.2,0,5,2.1,5,5.5v9.6h-4.2v-8.3c0-2-0.9-3-2.5-3
		c-1.6,0-2.6,1-2.6,3v8.3h-4.2V320z"/>
	<path fill="#333333" d="M141.2,335.9L141.2,335.9c0-3.3,2.5-4.8,6-4.8c1.5,0,2.6,0.2,3.6,0.6v-0.2c0-1.7-1.1-2.7-3.2-2.7
		c-1.6,0-2.7,0.3-4.1,0.8l-1-3.2c1.6-0.7,3.2-1.2,5.7-1.2c2.3,0,4,0.6,5,1.7c1.1,1.1,1.6,2.7,1.6,4.7v8.6h-4.1v-1.6
		c-1,1.1-2.4,1.9-4.5,1.9C143.5,340.4,141.2,338.8,141.2,335.9z M150.9,334.9v-0.7c-0.7-0.3-1.7-0.6-2.7-0.6c-1.8,0-2.9,0.7-2.9,2
		v0.1c0,1.1,0.9,1.8,2.3,1.8C149.5,337.5,150.9,336.5,150.9,334.9z"/>
	<path fill="#333333" d="M158.5,320h4.4v3.7h-4.4V320z M158.6,325.4h4.2v14.8h-4.2V325.4z"/>
	<path fill="#333333" d="M166.8,320h4.2v10.7l4.9-5.4h5l-5.6,5.8l5.8,9h-4.9l-3.8-6.1l-1.5,1.6v4.5h-4.2V320z"/>
	<path fill="#333333" d="M181.7,332.8L181.7,332.8c0-4.3,3.4-7.8,8-7.8c4.6,0,8,3.4,8,7.7v0.1c0,4.3-3.4,7.7-8,7.7
		C185.1,340.5,181.7,337.1,181.7,332.8z M193.6,332.8L193.6,332.8c0-2.2-1.6-4.1-3.9-4.1c-2.4,0-3.8,1.9-3.8,4v0.1
		c0,2.2,1.6,4.1,3.9,4.1C192.2,336.9,193.6,335,193.6,332.8z"/>
	<path fill="#333333" d="M198.6,325.4h4.4l3.3,9.9l3.3-9.9h4.4l-5.8,14.9h-3.8L198.6,325.4z"/>
	<path fill="#333333" d="M214.8,338.2l1.8-2.8c1.6,1.2,3.3,1.8,4.7,1.8c1.2,0,1.8-0.4,1.8-1.1v-0.1c0-0.9-1.4-1.2-3.1-1.7
		c-2.1-0.6-4.4-1.6-4.4-4.4v-0.1c0-3,2.4-4.7,5.4-4.7c1.9,0,3.9,0.6,5.5,1.7l-1.6,2.9c-1.5-0.9-2.9-1.4-4-1.4c-1,0-1.5,0.4-1.5,1
		v0.1c0,0.8,1.4,1.2,3,1.8c2.1,0.7,4.5,1.7,4.5,4.4v0.1c0,3.3-2.5,4.8-5.7,4.8C219.1,340.4,216.8,339.8,214.8,338.2z"/>
	<path fill="#333333" d="M229.9,320h4.2v10.7l4.9-5.4h5l-5.6,5.8l5.8,9h-4.9l-3.8-6.1l-1.5,1.6v4.5h-4.2V320z"/>
	<path fill="#333333" d="M255.5,325.4h4.4l-5.7,15.2c-1.1,3-2.3,4.1-4.9,4.1c-1.5,0-2.7-0.4-3.7-1l1.4-3c0.6,0.3,1.2,0.6,1.8,0.6
		c0.7,0,1.1-0.2,1.5-1l-5.8-14.9h4.4l3.4,10.1L255.5,325.4z"/>
	<path fill="#333333" d="M261.4,328c1.9-0.2,2.8-1.2,2.7-2.7h-1.7v-4.4h4.5v3.7c0,3.6-1.8,5.1-5.1,5.2L261.4,328z"/>
	<path fill="#333333" d="M268.7,338.2l1.8-2.8c1.6,1.2,3.3,1.8,4.7,1.8c1.2,0,1.8-0.4,1.8-1.1v-0.1c0-0.9-1.4-1.2-3.1-1.7
		c-2.1-0.6-4.4-1.6-4.4-4.4v-0.1c0-3,2.4-4.7,5.4-4.7c1.9,0,3.9,0.6,5.5,1.7l-1.6,2.9c-1.5-0.9-2.9-1.4-4-1.4c-1,0-1.5,0.4-1.5,1
		v0.1c0,0.8,1.4,1.2,3,1.8c2.1,0.7,4.5,1.7,4.5,4.4v0.1c0,3.3-2.5,4.8-5.7,4.8C273,340.4,270.7,339.8,268.7,338.2z"/>
	<path fill="#333333" d="M291.7,325.9c0-3.6,1.8-5.1,5.1-5.2l0.4,1.7c-1.9,0.2-2.8,1.2-2.7,2.7h1.7v4.4h-4.5V325.9z"/>
	<path fill="#333333" d="M300.4,320.8h3.9l9.1,11.9v-11.9h4.2v19.3h-3.6l-9.4-12.3v12.3h-4.2V320.8z"/>
	<path fill="#333333" d="M321.6,334.9v-9.6h4.2v8.3c0,2,0.9,3,2.5,3c1.6,0,2.6-1,2.6-3v-8.3h4.2v14.8H331v-2.1
		c-1,1.2-2.2,2.4-4.3,2.4C323.5,340.4,321.6,338.3,321.6,334.9z"/>
	<path fill="#333333" d="M339.7,336v-7h-1.8v-3.6h1.8v-3.8h4.2v3.8h3.5v3.6h-3.5v6.3c0,1,0.4,1.4,1.4,1.4c0.8,0,1.5-0.2,2.1-0.5v3.4
		c-0.9,0.5-1.9,0.9-3.3,0.9C341.4,340.4,339.7,339.4,339.7,336z"/>
	<path fill="#333333" d="M349.3,332.8L349.3,332.8c0-4.3,3.2-7.8,7.8-7.8c2.8,0,4.5,0.9,5.9,2.5l-2.6,2.8c-0.9-1-1.9-1.6-3.4-1.6
		c-2.1,0-3.6,1.9-3.6,4v0.1c0,2.3,1.5,4.1,3.8,4.1c1.4,0,2.4-0.6,3.4-1.6l2.5,2.5c-1.4,1.6-3.1,2.7-6.1,2.7
		C352.6,340.5,349.3,337.1,349.3,332.8z"/>
	<path fill="#333333" d="M365.8,325.4h4.2v3c0.9-2,2.2-3.4,4.7-3.3v4.4h-0.2c-2.8,0-4.5,1.7-4.5,5.2v5.5h-4.2V325.4z"/>
	<path fill="#333333" d="M375.8,335.9L375.8,335.9c0-3.3,2.5-4.8,6-4.8c1.5,0,2.6,0.2,3.6,0.6v-0.2c0-1.7-1.1-2.7-3.2-2.7
		c-1.6,0-2.7,0.3-4.1,0.8l-1-3.2c1.6-0.7,3.2-1.2,5.7-1.2c2.3,0,4,0.6,5,1.7c1.1,1.1,1.6,2.7,1.6,4.7v8.6h-4.1v-1.6
		c-1,1.1-2.4,1.9-4.5,1.9C378.1,340.4,375.8,338.8,375.8,335.9z M385.4,334.9v-0.7c-0.7-0.3-1.7-0.6-2.7-0.6c-1.8,0-2.9,0.7-2.9,2
		v0.1c0,1.1,0.9,1.8,2.3,1.8C384.1,337.5,385.4,336.5,385.4,334.9z"/>
	<path fill="#333333" d="M392.3,332.8L392.3,332.8c0-4.3,3.2-7.8,7.8-7.8c2.8,0,4.5,0.9,5.9,2.5l-2.6,2.8c-0.9-1-1.9-1.6-3.4-1.6
		c-2.1,0-3.6,1.9-3.6,4v0.1c0,2.3,1.5,4.1,3.8,4.1c1.4,0,2.4-0.6,3.4-1.6l2.5,2.5c-1.4,1.6-3.1,2.7-6.1,2.7
		C395.6,340.5,392.3,337.1,392.3,332.8z"/>
	<path fill="#333333" d="M408.8,320h4.2v10.7l4.9-5.4h5l-5.6,5.8l5.8,9h-4.9l-3.8-6.1l-1.5,1.6v4.5h-4.2V320z"/>
	<path fill="#333333" d="M423.7,332.8L423.7,332.8c0-4.3,3-7.8,7.3-7.8c4.9,0,7.2,3.8,7.2,8c0,0.3,0,0.7-0.1,1.1h-10.3
		c0.4,1.9,1.7,2.9,3.6,2.9c1.4,0,2.4-0.4,3.6-1.5l2.4,2.1c-1.4,1.7-3.4,2.8-6.1,2.8C427,340.5,423.7,337.4,423.7,332.8z
		 M434.2,331.6c-0.2-1.9-1.4-3.1-3.1-3.1c-1.7,0-2.9,1.2-3.2,3.1H434.2z"/>
	<path fill="#333333" d="M441.4,325.4h4.2v3c0.9-2,2.2-3.4,4.7-3.3v4.4h-0.2c-2.8,0-4.5,1.7-4.5,5.2v5.5h-4.2V325.4z"/>
	<path fill="#333333" d="M452.9,328c1.9-0.2,2.8-1.2,2.7-2.7h-1.7v-4.4h4.5v3.7c0,3.6-1.8,5.1-5.1,5.2L452.9,328z"/>
	<path fill="#333333" d="M23.8,347.9h9c2.2,0,4,0.6,5.1,1.7c0.9,0.9,1.3,2,1.3,3.3v0.1c0,2.2-1.2,3.4-2.5,4.2
		c2.2,0.9,3.6,2.2,3.6,4.8v0.1c0,3.5-2.9,5.3-7.2,5.3h-9.2V347.9z M34.9,353.6c0-1.3-1-2-2.8-2H28v4.1h3.9
		C33.8,355.7,34.9,355.1,34.9,353.6L34.9,353.6z M32.9,359.3H28v4.3H33c1.9,0,3-0.7,3-2.1v-0.1C36,360.1,35.1,359.3,32.9,359.3z"/>
	<path fill="#333333" d="M42.6,359.9L42.6,359.9c0-4.3,3-7.8,7.3-7.8c4.9,0,7.2,3.8,7.2,8c0,0.3,0,0.7-0.1,1.1H46.8
		c0.4,1.9,1.7,2.9,3.6,2.9c1.4,0,2.4-0.4,3.6-1.5l2.4,2.1c-1.4,1.7-3.4,2.8-6,2.8C45.9,367.6,42.6,364.5,42.6,359.9z M53,358.7
		c-0.2-1.9-1.4-3.1-3.1-3.1c-1.7,0-2.9,1.2-3.2,3.1H53z"/>
	<path fill="#333333" d="M59.5,359.9L59.5,359.9c0-4.3,3.2-7.8,7.8-7.8c2.8,0,4.5,0.9,5.9,2.5l-2.6,2.8c-0.9-1-1.9-1.6-3.4-1.6
		c-2.1,0-3.6,1.9-3.6,4v0.1c0,2.3,1.5,4.1,3.8,4.1c1.4,0,2.4-0.6,3.4-1.6l2.5,2.5c-1.4,1.6-3.1,2.7-6,2.7
		C62.8,367.6,59.5,364.2,59.5,359.9z"/>
	<path fill="#333333" d="M75.2,363L75.2,363c0-3.3,2.5-4.8,6-4.8c1.5,0,2.6,0.2,3.6,0.6v-0.2c0-1.7-1.1-2.7-3.2-2.7
		c-1.6,0-2.7,0.3-4.1,0.8l-1-3.2c1.6-0.7,3.2-1.2,5.7-1.2c2.3,0,4,0.6,5,1.7c1.1,1.1,1.6,2.7,1.6,4.7v8.6h-4.1v-1.6
		c-1,1.1-2.4,1.9-4.5,1.9C77.4,367.5,75.2,365.9,75.2,363z M84.8,362v-0.7c-0.7-0.3-1.7-0.6-2.7-0.6c-1.8,0-2.9,0.7-2.9,2v0.1
		c0,1.1,0.9,1.8,2.3,1.8C83.5,364.6,84.8,363.5,84.8,362z"/>
	<path fill="#333333" d="M92.4,352.4h4.2v2.1c1-1.2,2.2-2.4,4.4-2.4c1.9,0,3.4,0.9,4.2,2.3c1.3-1.5,2.8-2.3,4.9-2.3
		c3.1,0,5,1.9,5,5.4v9.6h-4.2V359c0-2-0.9-3-2.5-3s-2.5,1-2.5,3v8.3h-4.2V359c0-2-0.9-3-2.5-3s-2.5,1-2.5,3v8.3h-4.2V352.4z"/>
	<path fill="#333333" d="M117.9,359.9L117.9,359.9c0-4.3,3-7.8,7.3-7.8c4.9,0,7.2,3.8,7.2,8c0,0.3,0,0.7-0.1,1.1h-10.3
		c0.4,1.9,1.7,2.9,3.6,2.9c1.4,0,2.4-0.4,3.6-1.5l2.4,2.1c-1.4,1.7-3.4,2.8-6,2.8C121.2,367.6,117.9,364.5,117.9,359.9z
		 M128.4,358.7c-0.2-1.9-1.4-3.1-3.1-3.1c-1.7,0-2.9,1.2-3.2,3.1H128.4z"/>
	<path fill="#333333" d="M150.9,347.8h3.9l8.3,19.5h-4.4l-1.8-4.3h-8.2l-1.8,4.3h-4.3L150.9,347.8z M155.4,359.2l-2.6-6.3l-2.6,6.3
		H155.4z"/>
	<path fill="#333333" d="M174.4,347.9h4.3v7.7h7.8v-7.7h4.3v19.3h-4.3v-7.8h-7.8v7.8h-4.3V347.9z"/>
	<path fill="#333333" d="M194.3,359.9L194.3,359.9c0-4.3,3.4-7.8,8-7.8c4.6,0,8,3.4,8,7.7v0.1c0,4.3-3.4,7.7-8,7.7
		C197.7,367.6,194.3,364.2,194.3,359.9z M206.1,359.9L206.1,359.9c0-2.2-1.6-4.1-3.9-4.1c-2.4,0-3.8,1.9-3.8,4v0.1
		c0,2.2,1.6,4.1,3.9,4.1C204.7,364,206.1,362.1,206.1,359.9z"/>
	<path fill="#333333" d="M213.5,347.1h4.2v20.2h-4.2V347.1z"/>
	<path fill="#333333" d="M221.7,347.1h4.4v3.7h-4.4V347.1z M221.9,352.4h4.2v14.8h-4.2V352.4z"/>
	<path fill="#333333" d="M229.3,359.9L229.3,359.9c0-5,3.2-7.7,6.7-7.7c2.2,0,3.6,1,4.6,2.2v-7.3h4.2v20.2h-4.2v-2.1
		c-1,1.4-2.4,2.4-4.6,2.4C232.6,367.5,229.3,364.8,229.3,359.9z M240.8,359.9L240.8,359.9c0-2.5-1.6-4.1-3.6-4.1s-3.6,1.6-3.6,4.1
		v0.1c0,2.5,1.7,4.1,3.6,4.1S240.8,362.3,240.8,359.9z"/>
	<path fill="#333333" d="M247.8,363L247.8,363c0-3.3,2.5-4.8,6-4.8c1.5,0,2.6,0.2,3.6,0.6v-0.2c0-1.7-1.1-2.7-3.2-2.7
		c-1.6,0-2.7,0.3-4.1,0.8l-1-3.2c1.6-0.7,3.2-1.2,5.7-1.2c2.3,0,4,0.6,5,1.7c1.1,1.1,1.6,2.7,1.6,4.7v8.6h-4.1v-1.6
		c-1,1.1-2.4,1.9-4.5,1.9C250.1,367.5,247.8,365.9,247.8,363z M257.4,362v-0.7c-0.7-0.3-1.7-0.6-2.7-0.6c-1.8,0-2.9,0.7-2.9,2v0.1
		c0,1.1,0.9,1.8,2.3,1.8C256.1,364.6,257.4,363.5,257.4,362z"/>
	<path fill="#333333" d="M274.2,352.4h4.4l-5.7,15.2c-1.1,3-2.3,4.1-4.9,4.1c-1.5,0-2.7-0.4-3.7-1l1.4-3c0.6,0.3,1.2,0.6,1.8,0.6
		c0.7,0,1.1-0.2,1.5-1l-5.8-14.9h4.4l3.4,10.1L274.2,352.4z"/>
	<path fill="#333333" d="M294.3,351.8h-5.9v-3.9h16v3.9h-5.9v15.4h-4.3V351.8z"/>
	<path fill="#333333" d="M305.6,352.4h4.2v3c0.9-2,2.2-3.4,4.7-3.3v4.4h-0.2c-2.8,0-4.5,1.7-4.5,5.2v5.5h-4.2V352.4z"/>
	<path fill="#333333" d="M315.5,363L315.5,363c0-3.3,2.5-4.8,6-4.8c1.5,0,2.6,0.2,3.6,0.6v-0.2c0-1.7-1.1-2.7-3.2-2.7
		c-1.6,0-2.7,0.3-4.1,0.8l-1-3.2c1.6-0.7,3.2-1.2,5.7-1.2c2.3,0,4,0.6,5,1.7c1.1,1.1,1.6,2.7,1.6,4.7v8.6h-4.1v-1.6
		c-1,1.1-2.4,1.9-4.5,1.9C317.8,367.5,315.5,365.9,315.5,363z M325.2,362v-0.7c-0.7-0.3-1.7-0.6-2.7-0.6c-1.8,0-2.9,0.7-2.9,2v0.1
		c0,1.1,0.9,1.8,2.3,1.8C323.9,364.6,325.2,363.5,325.2,362z"/>
	<path fill="#333333" d="M332.1,359.9L332.1,359.9c0-5,3.2-7.7,6.7-7.7c2.2,0,3.6,1,4.6,2.2v-7.3h4.2v20.2h-4.2v-2.1
		c-1,1.4-2.4,2.4-4.6,2.4C335.4,367.5,332.1,364.8,332.1,359.9z M343.5,359.9L343.5,359.9c0-2.5-1.6-4.1-3.6-4.1s-3.6,1.6-3.6,4.1
		v0.1c0,2.5,1.7,4.1,3.6,4.1S343.5,362.3,343.5,359.9z"/>
	<path fill="#333333" d="M351.5,347.1h4.4v3.7h-4.4V347.1z M351.6,352.4h4.2v14.8h-4.2V352.4z"/>
	<path fill="#333333" d="M360.5,363v-7h-1.8v-3.6h1.8v-3.8h4.2v3.8h3.5v3.6h-3.5v6.3c0,1,0.4,1.4,1.4,1.4c0.8,0,1.5-0.2,2.1-0.5v3.4
		c-0.9,0.5-1.9,0.9-3.3,0.9C362.2,367.5,360.5,366.5,360.5,363z"/>
	<path fill="#333333" d="M371.3,347.1h4.4v3.7h-4.4V347.1z M371.4,352.4h4.2v14.8h-4.2V352.4z"/>
	<path fill="#333333" d="M378.9,359.9L378.9,359.9c0-4.3,3.4-7.8,8-7.8c4.6,0,8,3.4,8,7.7v0.1c0,4.3-3.4,7.7-8,7.7
		C382.3,367.6,378.9,364.2,378.9,359.9z M390.7,359.9L390.7,359.9c0-2.2-1.6-4.1-3.9-4.1c-2.4,0-3.8,1.9-3.8,4v0.1
		c0,2.2,1.6,4.1,3.9,4.1C389.3,364,390.7,362.1,390.7,359.9z"/>
	<path fill="#333333" d="M397.9,352.4h4.2v2.1c1-1.2,2.2-2.4,4.3-2.4c3.2,0,5,2.1,5,5.5v9.6h-4.2V359c0-2-0.9-3-2.5-3s-2.6,1-2.6,3
		v8.3h-4.2V352.4z"/>
</g>
<g>
	<path fill="#898989" d="M22.4,301.7h1.9v1c0.4-0.6,1-1.1,2-1.1c0.9,0,1.6,0.4,1.9,1.1c0.6-0.7,1.3-1.1,2.3-1.1
		c1.4,0,2.3,0.9,2.3,2.5v4.5h-1.9v-3.8c0-0.9-0.4-1.4-1.1-1.4s-1.2,0.5-1.2,1.4v3.8h-1.9v-3.8c0-0.9-0.4-1.4-1.1-1.4
		c-0.7,0-1.2,0.5-1.2,1.4v3.8h-1.9V301.7z"/>
	<path fill="#898989" d="M34.5,306.2v-4.4h1.9v3.8c0,0.9,0.4,1.4,1.2,1.4c0.7,0,1.2-0.5,1.2-1.4v-3.8h1.9v6.9h-1.9v-1
		c-0.4,0.6-1,1.1-2,1.1C35.3,308.7,34.5,307.7,34.5,306.2z"/>
	<path fill="#898989" d="M42,307.7l0.8-1.3c0.7,0.5,1.5,0.8,2.2,0.8c0.6,0,0.8-0.2,0.8-0.5v0c0-0.4-0.7-0.6-1.4-0.8
		c-1-0.3-2-0.7-2-2.1v0c0-1.4,1.1-2.2,2.5-2.2c0.9,0,1.8,0.3,2.6,0.8l-0.7,1.3c-0.7-0.4-1.4-0.6-1.9-0.6c-0.5,0-0.7,0.2-0.7,0.5v0
		c0,0.4,0.7,0.6,1.4,0.8c1,0.3,2.1,0.8,2.1,2v0c0,1.5-1.1,2.2-2.6,2.2C44,308.7,42.9,308.4,42,307.7z"/>
	<path fill="#898989" d="M49,299.2h2v1.7h-2V299.2z M49,301.7H51v6.9H49V301.7z"/>
	<path fill="#898989" d="M52.5,305.2L52.5,305.2c0-2,1.5-3.6,3.6-3.6c1.3,0,2.1,0.4,2.7,1.2l-1.2,1.3c-0.4-0.5-0.9-0.8-1.6-0.8
		c-1,0-1.7,0.9-1.7,1.9v0c0,1.1,0.7,1.9,1.7,1.9c0.7,0,1.1-0.3,1.6-0.7l1.1,1.2c-0.7,0.7-1.4,1.3-2.8,1.3
		C54,308.7,52.5,307.1,52.5,305.2z"/>
	<path fill="#898989" d="M64,301.7h1.9v1c0.4-0.6,1-1.1,2-1.1c1.5,0,2.3,1,2.3,2.5v4.4h-1.9v-3.8c0-0.9-0.4-1.4-1.2-1.4
		c-0.7,0-1.2,0.5-1.2,1.4v3.8H64V301.7z"/>
	<path fill="#898989" d="M71.6,305.2L71.6,305.2c0-2,1.4-3.6,3.4-3.6c2.3,0,3.3,1.8,3.3,3.7c0,0.2,0,0.3,0,0.5h-4.8
		c0.2,0.9,0.8,1.3,1.7,1.3c0.7,0,1.1-0.2,1.7-0.7l1.1,1c-0.6,0.8-1.6,1.3-2.8,1.3C73.2,308.7,71.6,307.3,71.6,305.2z M76.5,304.6
		c-0.1-0.9-0.6-1.5-1.4-1.5c-0.8,0-1.3,0.6-1.5,1.5H76.5z"/>
	<path fill="#898989" d="M78.9,301.7h2l1.1,4.2l1.3-4.2H85l1.3,4.2l1.1-4.2h1.9l-2.1,6.9h-1.8l-1.3-4.2l-1.3,4.2H81L78.9,301.7z"/>
	<path fill="#898989" d="M89.8,307.7l0.8-1.3c0.7,0.5,1.5,0.8,2.2,0.8c0.6,0,0.8-0.2,0.8-0.5v0c0-0.4-0.7-0.6-1.4-0.8
		c-1-0.3-2-0.7-2-2.1v0c0-1.4,1.1-2.2,2.5-2.2c0.9,0,1.8,0.3,2.6,0.8l-0.7,1.3c-0.7-0.4-1.4-0.6-1.9-0.6c-0.5,0-0.7,0.2-0.7,0.5v0
		c0,0.4,0.7,0.6,1.4,0.8c1,0.3,2.1,0.8,2.1,2v0c0,1.5-1.1,2.2-2.6,2.2C91.8,308.7,90.7,308.4,89.8,307.7z"/>
</g>
<g>
	<path fill="#898989" d="M22.5,387.7h3.6c1,0,1.8,0.3,2.3,0.8c0.4,0.4,0.7,1,0.7,1.7v0c0,1.3-0.8,2.1-1.9,2.4l2.2,3h-1.7l-2-2.8
		h-1.8v2.8h-1.4V387.7z M26,391.6c1,0,1.6-0.5,1.6-1.3v0c0-0.9-0.6-1.3-1.7-1.3h-2v2.7H26z"/>
	<path fill="#898989" d="M30.2,392.7L30.2,392.7c0-1.7,1.2-3.2,2.9-3.2c1.9,0,2.9,1.5,2.9,3.2c0,0.1,0,0.3,0,0.4h-4.4
		c0.1,1,0.8,1.5,1.7,1.5c0.7,0,1.2-0.3,1.6-0.7l0.8,0.7c-0.6,0.7-1.4,1.1-2.5,1.1C31.5,395.8,30.2,394.5,30.2,392.7z M34.6,392.2
		c-0.1-0.9-0.6-1.6-1.5-1.6c-0.8,0-1.4,0.7-1.6,1.6H34.6z"/>
	<path fill="#898989" d="M37.4,389.6h1.4v0.9c0.4-0.6,0.9-1.1,1.9-1.1c1.4,0,2.1,0.9,2.1,2.3v3.8h-1.4v-3.4c0-0.9-0.5-1.5-1.3-1.5
		c-0.8,0-1.4,0.6-1.4,1.5v3.4h-1.4V389.6z"/>
	<path fill="#898989" d="M44.1,392.7L44.1,392.7c0-1.7,1.2-3.2,2.9-3.2c1.9,0,2.9,1.5,2.9,3.2c0,0.1,0,0.3,0,0.4h-4.4
		c0.1,1,0.8,1.5,1.7,1.5c0.7,0,1.2-0.3,1.6-0.7l0.8,0.7c-0.6,0.7-1.4,1.1-2.5,1.1C45.5,395.8,44.1,394.5,44.1,392.7z M48.6,392.2
		c-0.1-0.9-0.6-1.6-1.5-1.6c-0.8,0-1.4,0.7-1.6,1.6H48.6z"/>
	<path fill="#898989" d="M51,392.7L51,392.7c0-1.7,1.2-3.2,2.9-3.2c1.9,0,2.9,1.5,2.9,3.2c0,0.1,0,0.3,0,0.4h-4.4
		c0.1,1,0.8,1.5,1.7,1.5c0.7,0,1.2-0.3,1.6-0.7l0.8,0.7c-0.6,0.7-1.4,1.1-2.5,1.1C52.4,395.8,51,394.5,51,392.7z M55.5,392.2
		c-0.1-0.9-0.6-1.6-1.5-1.6c-0.8,0-1.4,0.7-1.6,1.6H55.5z"/>
	<path fill="#898989" d="M61.8,387.7h1.5l2.4,3.8l2.4-3.8h1.5v8h-1.4v-5.7l-2.5,3.8h0l-2.5-3.7v5.7h-1.4V387.7z"/>
	<path fill="#898989" d="M71.2,392.7L71.2,392.7c0-1.7,1.4-3.2,3.2-3.2c1.8,0,3.2,1.4,3.2,3.1v0c0,1.7-1.4,3.1-3.2,3.1
		C72.6,395.8,71.2,394.4,71.2,392.7z M76.3,392.7L76.3,392.7c0-1.1-0.8-2-1.8-2c-1.1,0-1.8,0.9-1.8,1.9v0c0,1,0.8,1.9,1.8,1.9
		C75.6,394.6,76.3,393.7,76.3,392.7z"/>
	<path fill="#898989" d="M79.1,389.6h1.4v0.9c0.4-0.6,0.9-1.1,1.9-1.1c1.4,0,2.1,0.9,2.1,2.3v3.8h-1.4v-3.4c0-0.9-0.5-1.5-1.3-1.5
		c-0.8,0-1.4,0.6-1.4,1.5v3.4h-1.4V389.6z"/>
	<path fill="#898989" d="M86.4,394v-3.2h-0.8v-1.2h0.8V388h1.4v1.7h1.6v1.2h-1.6v3c0,0.5,0.3,0.8,0.7,0.8c0.3,0,0.6-0.1,0.9-0.2v1.1
		c-0.3,0.2-0.7,0.3-1.2,0.3C87.1,395.8,86.4,395.3,86.4,394z"/>
	<path fill="#898989" d="M90.4,393.9L90.4,393.9c0-1.3,1-2,2.5-2c0.7,0,1.2,0.1,1.6,0.3v-0.1c0-0.9-0.5-1.3-1.5-1.3
		c-0.7,0-1.2,0.1-1.7,0.4l-0.4-1.1c0.7-0.3,1.3-0.5,2.3-0.5c0.9,0,1.6,0.2,2,0.7c0.4,0.4,0.7,1.1,0.7,1.9v3.6h-1.3v-0.8
		c-0.4,0.5-1,0.9-2,0.9C91.4,395.8,90.4,395.1,90.4,393.9z M94.6,393.5v-0.4c-0.4-0.1-0.8-0.2-1.4-0.2c-0.9,0-1.4,0.4-1.4,1v0
		c0,0.6,0.5,0.9,1.2,0.9C93.9,394.8,94.6,394.2,94.6,393.5z"/>
	<path fill="#898989" d="M97.5,396.8l0.5-1c0.7,0.4,1.3,0.6,2.1,0.6c1.2,0,1.9-0.6,1.9-1.8v-0.5c-0.5,0.7-1.1,1.1-2.1,1.1
		c-1.4,0-2.7-1-2.7-2.8v0c0-1.8,1.3-2.8,2.7-2.8c1,0,1.6,0.5,2.1,1v-0.9h1.4v4.8c0,1-0.3,1.8-0.8,2.3c-0.5,0.5-1.4,0.8-2.5,0.8
		C99.2,397.5,98.3,397.2,97.5,396.8z M102.1,392.3L102.1,392.3c0-1-0.8-1.7-1.8-1.7c-1,0-1.7,0.7-1.7,1.7v0c0,1,0.8,1.7,1.7,1.7
		C101.3,394,102.1,393.3,102.1,392.3z"/>
	<path fill="#898989" d="M105.2,389.6h1.4v0.9c0.4-0.6,0.9-1.1,1.9-1.1c1.4,0,2.1,0.9,2.1,2.3v3.8h-1.4v-3.4c0-0.9-0.5-1.5-1.3-1.5
		c-0.8,0-1.4,0.6-1.4,1.5v3.4h-1.4V389.6z"/>
	<path fill="#898989" d="M111.9,392.7L111.9,392.7c0-1.7,1.2-3.2,2.9-3.2c1.9,0,2.9,1.5,2.9,3.2c0,0.1,0,0.3,0,0.4h-4.4
		c0.1,1,0.8,1.5,1.7,1.5c0.7,0,1.2-0.3,1.6-0.7l0.8,0.7c-0.6,0.7-1.4,1.1-2.5,1.1C113.3,395.8,111.9,394.5,111.9,392.7z
		 M116.4,392.2c-0.1-0.9-0.6-1.6-1.5-1.6c-0.8,0-1.4,0.7-1.6,1.6H116.4z"/>
	<path fill="#898989" d="M122.8,394v-3.2h-0.8v-1.2h0.8V388h1.4v1.7h1.6v1.2h-1.6v3c0,0.5,0.3,0.8,0.7,0.8c0.3,0,0.6-0.1,0.9-0.2
		v1.1c-0.3,0.2-0.7,0.3-1.2,0.3C123.6,395.8,122.8,395.3,122.8,394z"/>
	<path fill="#898989" d="M126.8,393.9L126.8,393.9c0-1.3,1-2,2.5-2c0.7,0,1.2,0.1,1.6,0.3v-0.1c0-0.9-0.5-1.3-1.5-1.3
		c-0.7,0-1.2,0.1-1.7,0.4l-0.4-1.1c0.7-0.3,1.3-0.5,2.3-0.5c0.9,0,1.6,0.2,2,0.7c0.4,0.4,0.7,1.1,0.7,1.9v3.6h-1.3v-0.8
		c-0.4,0.5-1,0.9-2,0.9C127.9,395.8,126.8,395.1,126.8,393.9z M131,393.5v-0.4c-0.4-0.1-0.8-0.2-1.4-0.2c-0.9,0-1.4,0.4-1.4,1v0
		c0,0.6,0.5,0.9,1.2,0.9C130.3,394.8,131,394.2,131,393.5z"/>
	<path fill="#898989" d="M134,387.3h1.4v8.3H134V387.3z"/>
	<path fill="#898989" d="M137.2,387.3h1.4v5l2.5-2.7h1.7l-2.4,2.5l2.5,3.6h-1.6l-1.8-2.6l-0.9,0.9v1.7h-1.4V387.3z"/>
	<path fill="#898989" d="M143.4,394.9l0.6-0.9c0.7,0.5,1.4,0.7,2,0.7c0.6,0,0.9-0.3,0.9-0.7v0c0-0.5-0.6-0.6-1.3-0.8
		c-0.9-0.3-1.9-0.6-1.9-1.8v0c0-1.1,0.9-1.8,2.1-1.8c0.8,0,1.6,0.3,2.2,0.7l-0.5,1c-0.6-0.4-1.2-0.6-1.7-0.6c-0.5,0-0.8,0.3-0.8,0.6
		v0c0,0.4,0.7,0.6,1.4,0.9c0.9,0.3,1.9,0.7,1.9,1.8v0c0,1.3-1,1.9-2.2,1.9C145.1,395.8,144.1,395.5,143.4,394.9z"/>
	<path fill="#898989" d="M152.5,389.6h1.4l1.2,4.1l1.3-4.2h1.2l1.3,4.2l1.2-4.1h1.4l-2,6.1h-1.2l-1.3-4.1l-1.4,4.1h-1.2L152.5,389.6
		z"/>
	<path fill="#898989" d="M162.8,387.4h1.5v1.3h-1.5V387.4z M162.9,389.6h1.4v6h-1.4V389.6z"/>
	<path fill="#898989" d="M166.4,394v-3.2h-0.8v-1.2h0.8V388h1.4v1.7h1.6v1.2h-1.6v3c0,0.5,0.3,0.8,0.7,0.8c0.3,0,0.6-0.1,0.9-0.2
		v1.1c-0.3,0.2-0.7,0.3-1.2,0.3C167.1,395.8,166.4,395.3,166.4,394z"/>
	<path fill="#898989" d="M170.8,387.3h1.4v3.2c0.4-0.6,0.9-1.1,1.9-1.1c1.4,0,2.1,0.9,2.1,2.3v3.8h-1.4v-3.4c0-0.9-0.5-1.5-1.3-1.5
		c-0.8,0-1.4,0.6-1.4,1.5v3.4h-1.4V387.3z"/>
	<path fill="#898989" d="M181.4,387.7h1.5l2.4,3.8l2.4-3.8h1.5v8h-1.4v-5.7l-2.5,3.8h0l-2.5-3.7v5.7h-1.4V387.7z"/>
	<path fill="#898989" d="M191.2,387.4h1.5v1.3h-1.5V387.4z M191.2,389.6h1.4v6h-1.4V389.6z"/>
	<path fill="#898989" d="M194.5,387.3h1.4v8.3h-1.4V387.3z"/>
	<path fill="#898989" d="M197.4,392.7L197.4,392.7c0-1.7,1.2-3.2,2.9-3.2c1.9,0,2.9,1.5,2.9,3.2c0,0.1,0,0.3,0,0.4h-4.4
		c0.1,1,0.8,1.5,1.7,1.5c0.7,0,1.2-0.3,1.6-0.7l0.8,0.7c-0.6,0.7-1.4,1.1-2.5,1.1C198.7,395.8,197.4,394.5,197.4,392.7z
		 M201.8,392.2c-0.1-0.9-0.6-1.6-1.5-1.6c-0.8,0-1.4,0.7-1.6,1.6H201.8z"/>
	<path fill="#898989" d="M204.1,394.9l0.6-0.9c0.7,0.5,1.4,0.7,2,0.7c0.6,0,0.9-0.3,0.9-0.7v0c0-0.5-0.6-0.6-1.3-0.8
		c-0.9-0.3-1.9-0.6-1.9-1.8v0c0-1.1,0.9-1.8,2.1-1.8c0.8,0,1.6,0.3,2.2,0.7l-0.5,1c-0.6-0.4-1.2-0.6-1.7-0.6c-0.5,0-0.8,0.3-0.8,0.6
		v0c0,0.4,0.7,0.6,1.4,0.9c0.9,0.3,1.9,0.7,1.9,1.8v0c0,1.3-1,1.9-2.2,1.9C205.8,395.8,204.8,395.5,204.1,394.9z"/>
	<path fill="#898989" d="M213.9,387.7h1.4v3.3h3.8v-3.3h1.4v8h-1.4v-3.4h-3.8v3.4h-1.4V387.7z"/>
	<path fill="#898989" d="M222,392.7L222,392.7c0-1.7,1.4-3.2,3.2-3.2c1.8,0,3.2,1.4,3.2,3.1v0c0,1.7-1.4,3.1-3.2,3.1
		C223.4,395.8,222,394.4,222,392.7z M227.1,392.7L227.1,392.7c0-1.1-0.8-2-1.8-2c-1.1,0-1.8,0.9-1.8,1.9v0c0,1,0.8,1.9,1.8,1.9
		C226.4,394.6,227.1,393.7,227.1,392.7z"/>
	<path fill="#898989" d="M230.2,390.8h-0.8v-1.2h0.8v-0.4c0-0.7,0.2-1.2,0.5-1.5c0.3-0.3,0.8-0.5,1.4-0.5c0.5,0,0.8,0.1,1.1,0.2v1.2
		c-0.3-0.1-0.5-0.1-0.8-0.1c-0.5,0-0.8,0.3-0.8,0.9v0.3h1.6v1.1h-1.6v4.8h-1.4V390.8z M234.5,390.8h-0.8v-1.2h0.8v-0.4
		c0-0.7,0.2-1.2,0.5-1.5c0.3-0.3,0.8-0.5,1.4-0.5c0.5,0,0.8,0.1,1.1,0.2v1.2c-0.3-0.1-0.5-0.1-0.8-0.1c-0.5,0-0.8,0.3-0.8,0.9v0.3
		h1.6v1.1h-1.6v4.8h-1.4V390.8z"/>
	<path fill="#898989" d="M238.5,389.6h1.4v0.9c0.4-0.5,0.9-1,1.8-1c0.9,0,1.5,0.4,1.8,1.1c0.5-0.6,1.1-1.1,2-1.1
		c1.3,0,2.1,0.8,2.1,2.3v3.8h-1.4v-3.4c0-1-0.4-1.5-1.2-1.5c-0.8,0-1.3,0.5-1.3,1.5v3.4h-1.4v-3.4c0-0.9-0.5-1.5-1.2-1.5
		c-0.8,0-1.3,0.6-1.3,1.5v3.4h-1.4V389.6z"/>
	<path fill="#898989" d="M248.9,393.9L248.9,393.9c0-1.3,1-2,2.5-2c0.7,0,1.2,0.1,1.6,0.3v-0.1c0-0.9-0.5-1.3-1.5-1.3
		c-0.7,0-1.2,0.1-1.7,0.4l-0.4-1.1c0.7-0.3,1.3-0.5,2.3-0.5c0.9,0,1.6,0.2,2,0.7c0.4,0.4,0.7,1.1,0.7,1.9v3.6H253v-0.8
		c-0.4,0.5-1,0.9-2,0.9C249.9,395.8,248.9,395.1,248.9,393.9z M253,393.5v-0.4c-0.4-0.1-0.8-0.2-1.4-0.2c-0.9,0-1.4,0.4-1.4,1v0
		c0,0.6,0.5,0.9,1.2,0.9C252.3,394.8,253,394.2,253,393.5z"/>
	<path fill="#898989" d="M256,389.6h1.4v0.9c0.4-0.6,0.9-1.1,1.9-1.1c1.4,0,2.1,0.9,2.1,2.3v3.8H260v-3.4c0-0.9-0.5-1.5-1.3-1.5
		c-0.8,0-1.4,0.6-1.4,1.5v3.4H256V389.6z"/>
	<path fill="#898989" d="M266.1,393.9L266.1,393.9c0-1.3,1-2,2.5-2c0.7,0,1.2,0.1,1.6,0.3v-0.1c0-0.9-0.5-1.3-1.5-1.3
		c-0.7,0-1.2,0.1-1.7,0.4l-0.4-1.1c0.7-0.3,1.3-0.5,2.3-0.5c0.9,0,1.6,0.2,2,0.7c0.4,0.4,0.6,1.1,0.6,1.9v3.6h-1.3v-0.8
		c-0.4,0.5-1,0.9-2,0.9C267.1,395.8,266.1,395.1,266.1,393.9z M270.2,393.5v-0.4c-0.4-0.1-0.8-0.2-1.4-0.2c-0.9,0-1.4,0.4-1.4,1v0
		c0,0.6,0.5,0.9,1.2,0.9C269.5,394.8,270.2,394.2,270.2,393.5z"/>
	<path fill="#898989" d="M274.6,394.7v0.9h-1.4v-8.3h1.4v3.3c0.4-0.6,1.1-1.1,2.1-1.1c1.4,0,2.8,1.1,2.8,3.1v0c0,2-1.4,3.1-2.8,3.1
		C275.6,395.8,275,395.3,274.6,394.7z M278,392.7L278,392.7c0-1.2-0.8-2-1.7-2c-0.9,0-1.8,0.8-1.8,1.9v0c0,1.2,0.8,1.9,1.8,1.9
		C277.2,394.6,278,393.8,278,392.7z"/>
	<path fill="#898989" d="M280.5,392.7L280.5,392.7c0-1.7,1.4-3.2,3.2-3.2c1.8,0,3.2,1.4,3.2,3.1v0c0,1.7-1.4,3.1-3.2,3.1
		C281.9,395.8,280.5,394.4,280.5,392.7z M285.5,392.7L285.5,392.7c0-1.1-0.8-2-1.8-2c-1.1,0-1.8,0.9-1.8,1.9v0c0,1,0.8,1.9,1.8,1.9
		C284.8,394.6,285.5,393.7,285.5,392.7z"/>
	<path fill="#898989" d="M288.3,393.5v-3.8h1.4v3.4c0,0.9,0.5,1.5,1.3,1.5c0.8,0,1.4-0.5,1.4-1.5v-3.4h1.4v6h-1.4v-0.9
		c-0.4,0.6-0.9,1.1-1.9,1.1C289,395.8,288.3,394.9,288.3,393.5z"/>
	<path fill="#898989" d="M295.7,394v-3.2h-0.8v-1.2h0.8V388h1.4v1.7h1.6v1.2h-1.6v3c0,0.5,0.3,0.8,0.7,0.8c0.3,0,0.6-0.1,0.9-0.2
		v1.1c-0.3,0.2-0.7,0.3-1.2,0.3C296.4,395.8,295.7,395.3,295.7,394z"/>
	<path fill="#898989" d="M303.8,394v-3.2H303v-1.2h0.8V388h1.4v1.7h1.6v1.2h-1.6v3c0,0.5,0.3,0.8,0.7,0.8c0.3,0,0.6-0.1,0.9-0.2v1.1
		c-0.3,0.2-0.7,0.3-1.2,0.3C304.5,395.8,303.8,395.3,303.8,394z"/>
	<path fill="#898989" d="M308.2,387.3h1.4v3.2c0.4-0.6,0.9-1.1,1.9-1.1c1.4,0,2.1,0.9,2.1,2.3v3.8h-1.4v-3.4c0-0.9-0.5-1.5-1.3-1.5
		c-0.8,0-1.4,0.6-1.4,1.5v3.4h-1.4V387.3z"/>
	<path fill="#898989" d="M314.9,392.7L314.9,392.7c0-1.7,1.2-3.2,2.9-3.2c1.9,0,2.9,1.5,2.9,3.2c0,0.1,0,0.3,0,0.4h-4.4
		c0.1,1,0.8,1.5,1.7,1.5c0.7,0,1.2-0.3,1.6-0.7l0.8,0.7c-0.6,0.7-1.4,1.1-2.5,1.1C316.3,395.8,314.9,394.5,314.9,392.7z
		 M319.4,392.2c-0.1-0.9-0.6-1.6-1.5-1.6c-0.8,0-1.4,0.7-1.6,1.6H319.4z"/>
	<path fill="#898989" d="M325.6,387.3h1.4v3.2c0.4-0.6,0.9-1.1,1.9-1.1c1.4,0,2.1,0.9,2.1,2.3v3.8h-1.4v-3.4c0-0.9-0.5-1.5-1.3-1.5
		c-0.8,0-1.4,0.6-1.4,1.5v3.4h-1.4V387.3z"/>
	<path fill="#898989" d="M332.7,387.4h1.5v1.3h-1.5V387.4z M332.7,389.6h1.4v6h-1.4V389.6z"/>
	<path fill="#898989" d="M335.4,394.9l0.6-0.9c0.7,0.5,1.4,0.7,2,0.7c0.6,0,0.9-0.3,0.9-0.7v0c0-0.5-0.6-0.6-1.3-0.8
		c-0.9-0.3-1.9-0.6-1.9-1.8v0c0-1.1,0.9-1.8,2.1-1.8c0.8,0,1.6,0.3,2.2,0.7l-0.5,1c-0.6-0.4-1.2-0.6-1.7-0.6c-0.5,0-0.8,0.3-0.8,0.6
		v0c0,0.4,0.7,0.6,1.4,0.9c0.9,0.3,1.9,0.7,1.9,1.8v0c0,1.3-1,1.9-2.2,1.9C337.1,395.8,336.2,395.5,335.4,394.9z"/>
	<path fill="#898989" d="M341.8,394v-3.2H341v-1.2h0.8V388h1.4v1.7h1.6v1.2h-1.6v3c0,0.5,0.3,0.8,0.7,0.8c0.3,0,0.6-0.1,0.9-0.2v1.1
		c-0.3,0.2-0.7,0.3-1.2,0.3C342.5,395.8,341.8,395.3,341.8,394z"/>
	<path fill="#898989" d="M345.7,392.7L345.7,392.7c0-1.7,1.4-3.2,3.2-3.2c1.8,0,3.2,1.4,3.2,3.1v0c0,1.7-1.4,3.1-3.2,3.1
		C347.1,395.8,345.7,394.4,345.7,392.7z M350.8,392.7L350.8,392.7c0-1.1-0.8-2-1.8-2c-1.1,0-1.8,0.9-1.8,1.9v0c0,1,0.8,1.9,1.8,1.9
		C350,394.6,350.8,393.7,350.8,392.7z"/>
	<path fill="#898989" d="M353.5,389.6h1.4v1.4c0.4-0.9,1.1-1.5,2.1-1.5v1.5H357c-1.2,0-2.1,0.8-2.1,2.4v2.3h-1.4V389.6z"/>
	<path fill="#898989" d="M362.4,389.6h1.4l-2.4,6.2c-0.5,1.2-1,1.7-2,1.7c-0.6,0-1-0.1-1.4-0.4l0.5-1c0.3,0.1,0.5,0.2,0.8,0.2
		c0.4,0,0.6-0.2,0.9-0.7l-2.5-6h1.5l1.7,4.5L362.4,389.6z"/>
	<path fill="#898989" d="M368.1,392.7L368.1,392.7c0-1.7,1.4-3.2,3.2-3.2c1.8,0,3.2,1.4,3.2,3.1v0c0,1.7-1.4,3.1-3.2,3.1
		C369.5,395.8,368.1,394.4,368.1,392.7z M373.2,392.7L373.2,392.7c0-1.1-0.8-2-1.8-2c-1.1,0-1.8,0.9-1.8,1.9v0c0,1,0.8,1.9,1.8,1.9
		C372.5,394.6,373.2,393.7,373.2,392.7z"/>
	<path fill="#898989" d="M376.3,390.8h-0.8v-1.2h0.8v-0.4c0-0.7,0.2-1.2,0.5-1.5c0.3-0.3,0.8-0.5,1.4-0.5c0.5,0,0.8,0.1,1.1,0.2v1.2
		c-0.3-0.1-0.5-0.1-0.8-0.1c-0.5,0-0.8,0.3-0.8,0.9v0.3h1.6v1.1h-1.6v4.8h-1.4V390.8z"/>
	<path fill="#898989" d="M385.8,389h-2.5v-1.3h6.5v1.3h-2.5v6.7h-1.4V389z"/>
	<path fill="#898989" d="M389.4,392.7L389.4,392.7c0-1.7,1.3-3.2,3.1-3.2c1.1,0,1.8,0.4,2.4,1l-0.9,0.9c-0.4-0.4-0.9-0.8-1.6-0.8
		c-1,0-1.7,0.9-1.7,1.9v0c0,1.1,0.7,1.9,1.8,1.9c0.7,0,1.1-0.3,1.6-0.7l0.8,0.8c-0.6,0.7-1.3,1.1-2.5,1.1
		C390.8,395.8,389.4,394.4,389.4,392.7z"/>
	<path fill="#898989" d="M396.3,387.3h1.4v3.2c0.4-0.6,0.9-1.1,1.9-1.1c1.4,0,2.1,0.9,2.1,2.3v3.8h-1.4v-3.4c0-0.9-0.5-1.5-1.3-1.5
		c-0.8,0-1.4,0.6-1.4,1.5v3.4h-1.4V387.3z"/>
	<path fill="#898989" d="M403,393.9L403,393.9c0-1.3,1-2,2.5-2c0.7,0,1.2,0.1,1.6,0.3v-0.1c0-0.9-0.5-1.3-1.5-1.3
		c-0.7,0-1.2,0.1-1.7,0.4l-0.4-1.1c0.7-0.3,1.3-0.5,2.3-0.5c0.9,0,1.6,0.2,2,0.7c0.4,0.4,0.6,1.1,0.6,1.9v3.6h-1.3v-0.8
		c-0.4,0.5-1,0.9-2,0.9C404,395.8,403,395.1,403,393.9z M407.1,393.5v-0.4c-0.4-0.1-0.8-0.2-1.4-0.2c-0.9,0-1.4,0.4-1.4,1v0
		c0,0.6,0.5,0.9,1.2,0.9C406.4,394.8,407.1,394.2,407.1,393.5z"/>
	<path fill="#898989" d="M410.1,387.4h1.5v1.3h-1.5V387.4z M410.1,389.6h1.4v6h-1.4V389.6z"/>
	<path fill="#898989" d="M413.3,387.3h1.4v5l2.5-2.7h1.7l-2.4,2.5l2.5,3.6h-1.6l-1.8-2.6l-0.9,0.9v1.7h-1.4V387.3z"/>
	<path fill="#898989" d="M419.3,392.7L419.3,392.7c0-1.7,1.4-3.2,3.2-3.2c1.8,0,3.2,1.4,3.2,3.1v0c0,1.7-1.4,3.1-3.2,3.1
		C420.7,395.8,419.3,394.4,419.3,392.7z M424.4,392.7L424.4,392.7c0-1.1-0.8-2-1.8-2c-1.1,0-1.8,0.9-1.8,1.9v0c0,1,0.8,1.9,1.8,1.9
		C423.7,394.6,424.4,393.7,424.4,392.7z"/>
	<path fill="#898989" d="M426.3,389.6h1.5l1.6,4.4l1.6-4.4h1.4l-2.5,6.1h-1.2L426.3,389.6z"/>
	<path fill="#898989" d="M432.9,394.9l0.6-0.9c0.7,0.5,1.4,0.7,2,0.7c0.6,0,0.9-0.3,0.9-0.7v0c0-0.5-0.6-0.6-1.3-0.8
		c-0.9-0.3-1.9-0.6-1.9-1.8v0c0-1.1,0.9-1.8,2.1-1.8c0.8,0,1.6,0.3,2.2,0.7l-0.5,1c-0.6-0.4-1.2-0.6-1.7-0.6c-0.5,0-0.8,0.3-0.8,0.6
		v0c0,0.4,0.7,0.6,1.4,0.9c0.9,0.3,1.9,0.7,1.9,1.8v0c0,1.3-1,1.9-2.2,1.9C434.6,395.8,433.6,395.5,432.9,394.9z"/>
	<path fill="#898989" d="M439.1,387.3h1.4v5l2.5-2.7h1.7l-2.4,2.5l2.5,3.6h-1.6l-1.8-2.6l-0.9,0.9v1.7h-1.4V387.3z"/>
	<path fill="#898989" d="M449.7,389.6h1.4l-2.4,6.2c-0.5,1.2-1,1.7-2,1.7c-0.6,0-1-0.1-1.4-0.4l0.5-1c0.3,0.1,0.5,0.2,0.8,0.2
		c0.4,0,0.6-0.2,0.9-0.7l-2.5-6h1.5l1.7,4.5L449.7,389.6z"/>
	<path fill="#898989" d="M452.4,387.7h1.6v0.1l-1.1,3.4h-0.7L452.4,387.7z"/>
	<path fill="#898989" d="M454.9,394.9l0.6-0.9c0.7,0.5,1.4,0.7,2,0.7c0.6,0,0.9-0.3,0.9-0.7v0c0-0.5-0.6-0.6-1.3-0.8
		c-0.9-0.3-1.9-0.6-1.9-1.8v0c0-1.1,0.9-1.8,2.1-1.8c0.8,0,1.6,0.3,2.2,0.7l-0.5,1c-0.6-0.4-1.2-0.6-1.7-0.6c-0.5,0-0.8,0.3-0.8,0.6
		v0c0,0.4,0.7,0.6,1.4,0.9c0.9,0.3,1.9,0.7,1.9,1.8v0c0,1.3-1,1.9-2.2,1.9C456.6,395.8,455.7,395.5,454.9,394.9z"/>
	<path fill="#898989" d="M24.5,404.1H22v-1.3h6.5v1.3h-2.5v6.7h-1.4V404.1z"/>
	<path fill="#898989" d="M29.6,402.5H31v3.2c0.4-0.6,0.9-1.1,1.9-1.1c1.4,0,2.1,0.9,2.1,2.3v3.8h-1.4v-3.4c0-0.9-0.5-1.5-1.3-1.5
		c-0.8,0-1.4,0.6-1.4,1.5v3.4h-1.4V402.5z"/>
	<path fill="#898989" d="M36.4,407.8L36.4,407.8c0-1.7,1.2-3.2,2.9-3.2c1.9,0,2.9,1.5,2.9,3.2c0,0.1,0,0.3,0,0.4h-4.4
		c0.1,1,0.8,1.5,1.7,1.5c0.7,0,1.2-0.3,1.6-0.7l0.8,0.7c-0.6,0.7-1.4,1.1-2.5,1.1C37.7,410.9,36.4,409.7,36.4,407.8z M40.8,407.3
		c-0.1-0.9-0.6-1.6-1.5-1.6c-0.8,0-1.4,0.7-1.6,1.6H40.8z"/>
	<path fill="#898989" d="M47.2,402.8h1.3l4.3,5.5v-5.5h1.4v8H53l-4.4-5.7v5.7h-1.4V402.8z"/>
	<path fill="#898989" d="M56,408.6v-3.8h1.4v3.4c0,0.9,0.5,1.5,1.3,1.5c0.8,0,1.4-0.5,1.4-1.5v-3.4h1.4v6H60v-0.9
		c-0.4,0.6-0.9,1.1-1.9,1.1C56.8,410.9,56,410,56,408.6z"/>
	<path fill="#898989" d="M63.4,409.1v-3.2h-0.8v-1.2h0.8v-1.7h1.4v1.7h1.6v1.2h-1.6v3c0,0.5,0.3,0.8,0.7,0.8c0.3,0,0.6-0.1,0.9-0.2
		v1.1c-0.3,0.2-0.7,0.3-1.2,0.3C64.1,410.9,63.4,410.4,63.4,409.1z"/>
	<path fill="#898989" d="M67.3,407.8L67.3,407.8c0-1.7,1.3-3.2,3.1-3.2c1.1,0,1.8,0.4,2.4,1l-0.9,0.9c-0.4-0.4-0.9-0.8-1.6-0.8
		c-1,0-1.7,0.9-1.7,1.9v0c0,1.1,0.7,1.9,1.8,1.9c0.7,0,1.1-0.3,1.6-0.7l0.8,0.8c-0.6,0.7-1.3,1.1-2.5,1.1
		C68.6,410.9,67.3,409.5,67.3,407.8z"/>
	<path fill="#898989" d="M74.1,404.8h1.4v1.4c0.4-0.9,1.1-1.5,2.1-1.5v1.5h-0.1c-1.2,0-2.1,0.8-2.1,2.4v2.3h-1.4V404.8z"/>
	<path fill="#898989" d="M78.2,409L78.2,409c0-1.3,1-2,2.5-2c0.7,0,1.2,0.1,1.6,0.3v-0.1c0-0.9-0.5-1.3-1.5-1.3
		c-0.7,0-1.2,0.1-1.7,0.4l-0.4-1.1c0.7-0.3,1.3-0.5,2.3-0.5c0.9,0,1.6,0.2,2,0.7c0.4,0.4,0.7,1.1,0.7,1.9v3.6h-1.3V410
		c-0.4,0.5-1,0.9-2,0.9C79.2,410.9,78.2,410.3,78.2,409z M82.3,408.6v-0.4c-0.4-0.1-0.8-0.2-1.4-0.2c-0.9,0-1.4,0.4-1.4,1v0
		c0,0.6,0.5,0.9,1.2,0.9C81.6,409.9,82.3,409.4,82.3,408.6z"/>
	<path fill="#898989" d="M84.9,407.8L84.9,407.8c0-1.7,1.3-3.2,3.1-3.2c1.1,0,1.8,0.4,2.4,1l-0.9,0.9c-0.4-0.4-0.9-0.8-1.6-0.8
		c-1,0-1.7,0.9-1.7,1.9v0c0,1.1,0.7,1.9,1.8,1.9c0.7,0,1.1-0.3,1.6-0.7l0.8,0.8c-0.6,0.7-1.3,1.1-2.5,1.1
		C86.3,410.9,84.9,409.5,84.9,407.8z"/>
	<path fill="#898989" d="M91.8,402.5h1.4v5l2.5-2.7h1.7l-2.4,2.5l2.5,3.6h-1.6l-1.8-2.6l-0.9,0.9v1.7h-1.4V402.5z"/>
	<path fill="#898989" d="M97.8,407.8L97.8,407.8c0-1.7,1.2-3.2,2.9-3.2c1.9,0,2.9,1.5,2.9,3.2c0,0.1,0,0.3,0,0.4h-4.4
		c0.1,1,0.8,1.5,1.7,1.5c0.7,0,1.2-0.3,1.6-0.7l0.8,0.7c-0.6,0.7-1.4,1.1-2.5,1.1C99.2,410.9,97.8,409.7,97.8,407.8z M102.3,407.3
		c-0.1-0.9-0.6-1.6-1.5-1.6c-0.8,0-1.4,0.7-1.6,1.6H102.3z"/>
	<path fill="#898989" d="M105,404.8h1.4v1.4c0.4-0.9,1.1-1.5,2.1-1.5v1.5h-0.1c-1.2,0-2.1,0.8-2.1,2.4v2.3H105V404.8z"/>
	<path fill="#898989" d="M112.8,409.6l0.8-1c0.8,0.7,1.5,1,2.5,1c0.9,0,1.4-0.4,1.4-1v0c0-0.6-0.3-0.9-1.8-1.2
		c-1.7-0.4-2.7-0.9-2.7-2.4v0c0-1.4,1.1-2.3,2.7-2.3c1.2,0,2.1,0.4,2.9,1l-0.8,1.1c-0.7-0.5-1.4-0.8-2.2-0.8c-0.8,0-1.3,0.4-1.3,0.9
		v0c0,0.6,0.4,0.9,1.9,1.3c1.7,0.4,2.6,1,2.6,2.3v0c0,1.5-1.2,2.4-2.9,2.4C114.9,410.9,113.7,410.5,112.8,409.6z"/>
	<path fill="#898989" d="M120.4,408.6v-3.8h1.4v3.4c0,0.9,0.5,1.5,1.3,1.5c0.8,0,1.4-0.5,1.4-1.5v-3.4h1.4v6h-1.4v-0.9
		c-0.4,0.6-0.9,1.1-1.9,1.1C121.2,410.9,120.4,410,120.4,408.6z"/>
	<path fill="#898989" d="M127.6,402.5h1.5v1.3h-1.5V402.5z M127.6,404.8h1.4v6h-1.4V404.8z"/>
	<path fill="#898989" d="M131.1,409.1v-3.2h-0.8v-1.2h0.8v-1.7h1.4v1.7h1.6v1.2h-1.6v3c0,0.5,0.3,0.8,0.7,0.8c0.3,0,0.6-0.1,0.9-0.2
		v1.1c-0.3,0.2-0.7,0.3-1.2,0.3C131.8,410.9,131.1,410.4,131.1,409.1z"/>
	<path fill="#898989" d="M135,407.8L135,407.8c0-1.7,1.2-3.2,2.9-3.2c1.9,0,2.9,1.5,2.9,3.2c0,0.1,0,0.3,0,0.4h-4.4
		c0.1,1,0.8,1.5,1.7,1.5c0.7,0,1.2-0.3,1.6-0.7l0.8,0.7c-0.6,0.7-1.4,1.1-2.5,1.1C136.3,410.9,135,409.7,135,407.8z M139.4,407.3
		c-0.1-0.9-0.6-1.6-1.5-1.6c-0.8,0-1.4,0.7-1.6,1.6H139.4z"/>
	<path fill="#898989" d="M142,409.2h1.5v1.6H142V409.2z"/>
	<path fill="#898989" d="M148.7,402.8h1.4v3.3h3.8v-3.3h1.4v8H154v-3.4h-3.8v3.4h-1.4V402.8z"/>
	<path fill="#898989" d="M156.9,407.8L156.9,407.8c0-1.7,1.4-3.2,3.2-3.2c1.8,0,3.2,1.4,3.2,3.1v0c0,1.7-1.4,3.1-3.2,3.1
		C158.3,410.9,156.9,409.5,156.9,407.8z M162,407.8L162,407.8c0-1.1-0.8-2-1.8-2c-1.1,0-1.8,0.9-1.8,1.9v0c0,1,0.8,1.9,1.8,1.9
		C161.3,409.7,162,408.8,162,407.8z"/>
	<path fill="#898989" d="M165.1,405.9h-0.8v-1.2h0.8v-0.4c0-0.7,0.2-1.2,0.5-1.5c0.3-0.3,0.8-0.5,1.4-0.5c0.5,0,0.8,0.1,1.1,0.2v1.2
		c-0.3-0.1-0.5-0.1-0.8-0.1c-0.5,0-0.8,0.3-0.8,0.9v0.3h1.6v1.1h-1.6v4.8h-1.4V405.9z M169.3,405.9h-0.8v-1.2h0.8v-0.4
		c0-0.7,0.2-1.2,0.5-1.5c0.3-0.3,0.8-0.5,1.4-0.5c0.5,0,0.8,0.1,1.1,0.2v1.2c-0.3-0.1-0.5-0.1-0.8-0.1c-0.5,0-0.8,0.3-0.8,0.9v0.3
		h1.6v1.1h-1.6v4.8h-1.4V405.9z"/>
	<path fill="#898989" d="M173.3,404.8h1.4v0.9c0.4-0.5,0.9-1,1.8-1c0.9,0,1.5,0.4,1.8,1.1c0.5-0.6,1.1-1.1,2-1.1
		c1.3,0,2.1,0.8,2.1,2.3v3.8h-1.4v-3.4c0-1-0.4-1.5-1.2-1.5c-0.8,0-1.3,0.5-1.3,1.5v3.4h-1.4v-3.4c0-0.9-0.5-1.5-1.2-1.5
		c-0.8,0-1.3,0.6-1.3,1.5v3.4h-1.4V404.8z"/>
	<path fill="#898989" d="M183.8,409L183.8,409c0-1.3,1-2,2.5-2c0.7,0,1.2,0.1,1.6,0.3v-0.1c0-0.9-0.5-1.3-1.5-1.3
		c-0.7,0-1.2,0.1-1.7,0.4l-0.4-1.1c0.7-0.3,1.3-0.5,2.3-0.5c0.9,0,1.6,0.2,2,0.7c0.4,0.4,0.7,1.1,0.7,1.9v3.6h-1.3V410
		c-0.4,0.5-1,0.9-2,0.9C184.8,410.9,183.8,410.3,183.8,409z M187.9,408.6v-0.4c-0.4-0.1-0.8-0.2-1.4-0.2c-0.9,0-1.4,0.4-1.4,1v0
		c0,0.6,0.5,0.9,1.2,0.9C187.2,409.9,187.9,409.4,187.9,408.6z"/>
	<path fill="#898989" d="M190.9,404.8h1.4v0.9c0.4-0.6,0.9-1.1,1.9-1.1c1.4,0,2.1,0.9,2.1,2.3v3.8h-1.4v-3.4c0-0.9-0.5-1.5-1.3-1.5
		c-0.8,0-1.4,0.6-1.4,1.5v3.4h-1.4V404.8z"/>
	<path fill="#898989" d="M201.4,402.5h1.5v1.3h-1.5V402.5z M201.4,404.8h1.4v6h-1.4V404.8z"/>
	<path fill="#898989" d="M204.1,410l0.6-0.9c0.7,0.5,1.4,0.7,2,0.7c0.6,0,0.9-0.3,0.9-0.7v0c0-0.5-0.6-0.6-1.3-0.8
		c-0.9-0.3-1.9-0.6-1.9-1.8v0c0-1.1,0.9-1.8,2.1-1.8c0.8,0,1.6,0.3,2.2,0.7l-0.5,1c-0.6-0.4-1.2-0.6-1.7-0.6c-0.5,0-0.8,0.3-0.8,0.6
		v0c0,0.4,0.7,0.6,1.4,0.9c0.9,0.3,1.9,0.7,1.9,1.8v0c0,1.3-1,1.9-2.2,1.9C205.8,410.9,204.9,410.6,204.1,410z"/>
	<path fill="#898989" d="M214,409.1v-3.2h-0.8v-1.2h0.8v-1.7h1.4v1.7h1.6v1.2h-1.6v3c0,0.5,0.3,0.8,0.7,0.8c0.3,0,0.6-0.1,0.9-0.2
		v1.1c-0.3,0.2-0.7,0.3-1.2,0.3C214.8,410.9,214,410.4,214,409.1z"/>
	<path fill="#898989" d="M218.4,402.5h1.4v3.2c0.4-0.6,0.9-1.1,1.9-1.1c1.4,0,2.1,0.9,2.1,2.3v3.8h-1.4v-3.4c0-0.9-0.5-1.5-1.3-1.5
		c-0.8,0-1.4,0.6-1.4,1.5v3.4h-1.4V402.5z"/>
	<path fill="#898989" d="M225.2,407.8L225.2,407.8c0-1.7,1.2-3.2,2.9-3.2c1.9,0,2.9,1.5,2.9,3.2c0,0.1,0,0.3,0,0.4h-4.4
		c0.1,1,0.8,1.5,1.7,1.5c0.7,0,1.2-0.3,1.6-0.7l0.8,0.7c-0.6,0.7-1.4,1.1-2.5,1.1C226.5,410.9,225.2,409.7,225.2,407.8z
		 M229.6,407.3c-0.1-0.9-0.6-1.6-1.5-1.6c-0.8,0-1.4,0.7-1.6,1.6H229.6z"/>
	<path fill="#898989" d="M235.3,404.8h1.5l1.6,4.4l1.6-4.4h1.4l-2.5,6.1h-1.2L235.3,404.8z"/>
	<path fill="#898989" d="M242.6,402.5h1.5v1.3h-1.5V402.5z M242.7,404.8h1.4v6h-1.4V404.8z"/>
	<path fill="#898989" d="M245.6,407.8L245.6,407.8c0-1.7,1.4-3.2,3.2-3.2c1.8,0,3.2,1.4,3.2,3.1v0c0,1.7-1.4,3.1-3.2,3.1
		C246.9,410.9,245.6,409.5,245.6,407.8z M250.6,407.8L250.6,407.8c0-1.1-0.8-2-1.8-2c-1.1,0-1.8,0.9-1.8,1.9v0c0,1,0.8,1.9,1.8,1.9
		C249.9,409.7,250.6,408.8,250.6,407.8z"/>
	<path fill="#898989" d="M253.5,402.5h1.4v8.3h-1.4V402.5z"/>
	<path fill="#898989" d="M256.7,402.5h1.5v1.3h-1.5V402.5z M256.7,404.8h1.4v6h-1.4V404.8z"/>
	<path fill="#898989" d="M259.4,410l0.6-0.9c0.7,0.5,1.4,0.7,2,0.7c0.6,0,0.9-0.3,0.9-0.7v0c0-0.5-0.6-0.6-1.3-0.8
		c-0.9-0.3-1.9-0.6-1.9-1.8v0c0-1.1,0.9-1.8,2.1-1.8c0.8,0,1.6,0.3,2.2,0.7l-0.5,1c-0.6-0.4-1.2-0.6-1.7-0.6c-0.5,0-0.8,0.3-0.8,0.6
		v0c0,0.4,0.7,0.6,1.4,0.9c0.9,0.3,1.9,0.7,1.9,1.8v0c0,1.3-1,1.9-2.2,1.9C261.1,410.9,260.2,410.6,259.4,410z"/>
	<path fill="#898989" d="M265.8,409.1v-3.2H265v-1.2h0.8v-1.7h1.4v1.7h1.6v1.2h-1.6v3c0,0.5,0.3,0.8,0.7,0.8c0.3,0,0.6-0.1,0.9-0.2
		v1.1c-0.3,0.2-0.7,0.3-1.2,0.3C266.5,410.9,265.8,410.4,265.8,409.1z"/>
	<path fill="#898989" d="M273.3,407.8L273.3,407.8c0-1.7,1.4-3.2,3.2-3.2c1.8,0,3.2,1.4,3.2,3.1v0c0,1.7-1.4,3.1-3.2,3.1
		C274.6,410.9,273.3,409.5,273.3,407.8z M278.3,407.8L278.3,407.8c0-1.1-0.8-2-1.8-2c-1.1,0-1.8,0.9-1.8,1.9v0c0,1,0.8,1.9,1.8,1.9
		C277.6,409.7,278.3,408.8,278.3,407.8z"/>
	<path fill="#898989" d="M281.4,405.9h-0.8v-1.2h0.8v-0.4c0-0.7,0.2-1.2,0.5-1.5c0.3-0.3,0.8-0.5,1.4-0.5c0.5,0,0.8,0.1,1.1,0.2v1.2
		c-0.3-0.1-0.5-0.1-0.8-0.1c-0.5,0-0.8,0.3-0.8,0.9v0.3h1.6v1.1h-1.6v4.8h-1.4V405.9z"/>
	<path fill="#898989" d="M289.1,409.1v-3.2h-0.8v-1.2h0.8v-1.7h1.4v1.7h1.6v1.2h-1.6v3c0,0.5,0.3,0.8,0.7,0.8c0.3,0,0.6-0.1,0.9-0.2
		v1.1c-0.3,0.2-0.7,0.3-1.2,0.3C289.8,410.9,289.1,410.4,289.1,409.1z"/>
	<path fill="#898989" d="M293.5,402.5h1.4v3.2c0.4-0.6,0.9-1.1,1.9-1.1c1.4,0,2.1,0.9,2.1,2.3v3.8h-1.4v-3.4c0-0.9-0.5-1.5-1.3-1.5
		c-0.8,0-1.4,0.6-1.4,1.5v3.4h-1.4V402.5z"/>
	<path fill="#898989" d="M300.3,407.8L300.3,407.8c0-1.7,1.2-3.2,2.9-3.2c1.9,0,2.9,1.5,2.9,3.2c0,0.1,0,0.3,0,0.4h-4.4
		c0.1,1,0.8,1.5,1.7,1.5c0.7,0,1.2-0.3,1.6-0.7l0.8,0.7c-0.6,0.7-1.4,1.1-2.5,1.1C301.6,410.9,300.3,409.7,300.3,407.8z
		 M304.7,407.3c-0.1-0.9-0.6-1.6-1.5-1.6c-0.8,0-1.4,0.7-1.6,1.6H304.7z"/>
	<path fill="#898989" d="M313.9,402.7h1.3l3.5,8h-1.5l-0.8-1.9h-3.8l-0.8,1.9h-1.4L313.9,402.7z M315.9,407.6l-1.4-3.2l-1.4,3.2
		H315.9z"/>
	<path fill="#898989" d="M319.9,404.8h1.4v0.9c0.4-0.5,0.9-1,1.8-1c0.9,0,1.5,0.4,1.8,1.1c0.5-0.6,1.1-1.1,2-1.1
		c1.3,0,2.1,0.8,2.1,2.3v3.8h-1.4v-3.4c0-1-0.4-1.5-1.2-1.5c-0.8,0-1.3,0.5-1.3,1.5v3.4h-1.4v-3.4c0-0.9-0.5-1.5-1.2-1.5
		c-0.8,0-1.3,0.6-1.3,1.5v3.4h-1.4V404.8z"/>
	<path fill="#898989" d="M330.4,407.8L330.4,407.8c0-1.7,1.2-3.2,2.9-3.2c1.9,0,2.9,1.5,2.9,3.2c0,0.1,0,0.3,0,0.4h-4.4
		c0.1,1,0.8,1.5,1.7,1.5c0.7,0,1.2-0.3,1.6-0.7l0.8,0.7c-0.6,0.7-1.4,1.1-2.5,1.1C331.8,410.9,330.4,409.7,330.4,407.8z
		 M334.9,407.3c-0.1-0.9-0.6-1.6-1.5-1.6c-0.8,0-1.4,0.7-1.6,1.6H334.9z"/>
	<path fill="#898989" d="M337.6,404.8h1.4v1.4c0.4-0.9,1.1-1.5,2.1-1.5v1.5h-0.1c-1.2,0-2.1,0.8-2.1,2.4v2.3h-1.4V404.8z"/>
	<path fill="#898989" d="M342.4,402.5h1.5v1.3h-1.5V402.5z M342.4,404.8h1.4v6h-1.4V404.8z"/>
	<path fill="#898989" d="M345.3,407.8L345.3,407.8c0-1.7,1.3-3.2,3.1-3.2c1.1,0,1.8,0.4,2.4,1l-0.9,0.9c-0.4-0.4-0.9-0.8-1.6-0.8
		c-1,0-1.7,0.9-1.7,1.9v0c0,1.1,0.7,1.9,1.8,1.9c0.7,0,1.1-0.3,1.6-0.7l0.8,0.8c-0.6,0.7-1.3,1.1-2.5,1.1
		C346.6,410.9,345.3,409.5,345.3,407.8z"/>
	<path fill="#898989" d="M351.7,409L351.7,409c0-1.3,1-2,2.5-2c0.7,0,1.2,0.1,1.6,0.3v-0.1c0-0.9-0.5-1.3-1.5-1.3
		c-0.7,0-1.2,0.1-1.7,0.4l-0.4-1.1c0.7-0.3,1.3-0.5,2.3-0.5c0.9,0,1.6,0.2,2,0.7c0.4,0.4,0.6,1.1,0.6,1.9v3.6h-1.3V410
		c-0.4,0.5-1,0.9-2,0.9C352.7,410.9,351.7,410.3,351.7,409z M355.9,408.6v-0.4c-0.4-0.1-0.8-0.2-1.4-0.2c-0.9,0-1.4,0.4-1.4,1v0
		c0,0.6,0.5,0.9,1.2,0.9C355.2,409.9,355.9,409.4,355.9,408.6z"/>
	<path fill="#898989" d="M358.8,404.8h1.4v0.9c0.4-0.6,0.9-1.1,1.9-1.1c1.4,0,2.1,0.9,2.1,2.3v3.8h-1.4v-3.4c0-0.9-0.5-1.5-1.3-1.5
		c-0.8,0-1.4,0.6-1.4,1.5v3.4h-1.4V404.8z"/>
	<path fill="#898989" d="M369.1,406.8L369.1,406.8c0-2.3,1.7-4.2,4.1-4.2c1.5,0,2.4,0.5,3.1,1.2l-0.9,1c-0.6-0.6-1.3-1-2.2-1
		c-1.5,0-2.6,1.3-2.6,2.8v0c0,1.6,1.1,2.8,2.6,2.8c1,0,1.6-0.4,2.3-1l0.9,0.9c-0.8,0.9-1.7,1.4-3.2,1.4
		C370.9,410.9,369.1,409.1,369.1,406.8z"/>
	<path fill="#898989" d="M377.7,402.5h1.4v3.2c0.4-0.6,0.9-1.1,1.9-1.1c1.4,0,2.1,0.9,2.1,2.3v3.8h-1.4v-3.4c0-0.9-0.5-1.5-1.3-1.5
		c-0.8,0-1.4,0.6-1.4,1.5v3.4h-1.4V402.5z"/>
	<path fill="#898989" d="M384.4,409L384.4,409c0-1.3,1-2,2.5-2c0.7,0,1.2,0.1,1.6,0.3v-0.1c0-0.9-0.5-1.3-1.5-1.3
		c-0.7,0-1.2,0.1-1.7,0.4l-0.4-1.1c0.7-0.3,1.3-0.5,2.3-0.5c0.9,0,1.6,0.2,2,0.7c0.4,0.4,0.6,1.1,0.6,1.9v3.6h-1.3V410
		c-0.4,0.5-1,0.9-2,0.9C385.4,410.9,384.4,410.3,384.4,409z M388.5,408.6v-0.4c-0.4-0.1-0.8-0.2-1.4-0.2c-0.9,0-1.4,0.4-1.4,1v0
		c0,0.6,0.5,0.9,1.2,0.9C387.8,409.9,388.5,409.4,388.5,408.6z"/>
	<path fill="#898989" d="M391.5,404.8h1.4v0.9c0.4-0.5,0.9-1,1.8-1c0.9,0,1.5,0.4,1.8,1.1c0.5-0.6,1.1-1.1,2-1.1
		c1.3,0,2.1,0.8,2.1,2.3v3.8h-1.4v-3.4c0-1-0.4-1.5-1.2-1.5c-0.8,0-1.3,0.5-1.3,1.5v3.4h-1.4v-3.4c0-0.9-0.5-1.5-1.2-1.5
		s-1.3,0.6-1.3,1.5v3.4h-1.4V404.8z"/>
	<path fill="#898989" d="M403.7,409.8v0.9h-1.4v-8.3h1.4v3.3c0.4-0.6,1.1-1.1,2.1-1.1c1.4,0,2.8,1.1,2.8,3.1v0c0,2-1.4,3.1-2.8,3.1
		C404.8,410.9,404.1,410.4,403.7,409.8z M407.2,407.8L407.2,407.8c0-1.2-0.8-2-1.7-2c-0.9,0-1.8,0.8-1.8,1.9v0
		c0,1.2,0.8,1.9,1.8,1.9C406.4,409.7,407.2,409,407.2,407.8z"/>
	<path fill="#898989" d="M409.7,407.8L409.7,407.8c0-1.7,1.2-3.2,2.9-3.2c1.9,0,2.9,1.5,2.9,3.2c0,0.1,0,0.3,0,0.4H411
		c0.1,1,0.8,1.5,1.7,1.5c0.7,0,1.2-0.3,1.6-0.7l0.8,0.7c-0.6,0.7-1.4,1.1-2.5,1.1C411,410.9,409.7,409.7,409.7,407.8z M414.1,407.3
		c-0.1-0.9-0.6-1.6-1.5-1.6c-0.8,0-1.4,0.7-1.6,1.6H414.1z"/>
	<path fill="#898989" d="M416.9,404.8h1.4v1.4c0.4-0.9,1.1-1.5,2.1-1.5v1.5h-0.1c-1.2,0-2.1,0.8-2.1,2.4v2.3h-1.4V404.8z"/>
	<path fill="#898989" d="M425.2,402.8h3.1c1.9,0,3,1.1,3,2.7v0c0,1.8-1.4,2.7-3.2,2.7h-1.6v2.6h-1.4V402.8z M428.2,407
		c1.1,0,1.7-0.6,1.7-1.4v0c0-0.9-0.7-1.4-1.7-1.4h-1.6v2.9H428.2z"/>
	<path fill="#898989" d="M432.7,402.5h1.4v8.3h-1.4V402.5z"/>
	<path fill="#898989" d="M435.5,409L435.5,409c0-1.3,1-2,2.5-2c0.7,0,1.2,0.1,1.6,0.3v-0.1c0-0.9-0.5-1.3-1.5-1.3
		c-0.7,0-1.2,0.1-1.7,0.4l-0.4-1.1c0.7-0.3,1.3-0.5,2.3-0.5c0.9,0,1.6,0.2,2,0.7c0.4,0.4,0.6,1.1,0.6,1.9v3.6h-1.3V410
		c-0.4,0.5-1,0.9-2,0.9C436.5,410.9,435.5,410.3,435.5,409z M439.6,408.6v-0.4c-0.4-0.1-0.8-0.2-1.4-0.2c-0.9,0-1.4,0.4-1.4,1v0
		c0,0.6,0.5,0.9,1.2,0.9C438.9,409.9,439.6,409.4,439.6,408.6z"/>
	<path fill="#898989" d="M446.5,404.8h1.4l-2.4,6.2c-0.5,1.2-1,1.7-2,1.7c-0.6,0-1-0.1-1.4-0.4l0.5-1c0.3,0.1,0.5,0.2,0.8,0.2
		c0.4,0,0.6-0.2,0.9-0.7l-2.5-6h1.5l1.7,4.5L446.5,404.8z"/>
	<path fill="#898989" d="M448.5,407.8L448.5,407.8c0-1.7,1.2-3.2,2.9-3.2c1.9,0,2.9,1.5,2.9,3.2c0,0.1,0,0.3,0,0.4h-4.4
		c0.1,1,0.8,1.5,1.7,1.5c0.7,0,1.2-0.3,1.6-0.7l0.8,0.7c-0.6,0.7-1.4,1.1-2.5,1.1C449.8,410.9,448.5,409.7,448.5,407.8z M453,407.3
		c-0.1-0.9-0.6-1.6-1.5-1.6c-0.8,0-1.4,0.7-1.6,1.6H453z"/>
	<path fill="#898989" d="M455.7,404.8h1.4v1.4c0.4-0.9,1.1-1.5,2.1-1.5v1.5h-0.1c-1.2,0-2.1,0.8-2.1,2.4v2.3h-1.4V404.8z"/>
	<path fill="#898989" d="M459.9,410l0.6-0.9c0.7,0.5,1.4,0.7,2,0.7c0.6,0,0.9-0.3,0.9-0.7v0c0-0.5-0.6-0.6-1.3-0.8
		c-0.9-0.3-1.9-0.6-1.9-1.8v0c0-1.1,0.9-1.8,2.1-1.8c0.8,0,1.6,0.3,2.2,0.7l-0.5,1c-0.6-0.4-1.2-0.6-1.7-0.6c-0.5,0-0.8,0.3-0.8,0.6
		v0c0,0.4,0.7,0.6,1.4,0.9c0.9,0.3,1.9,0.7,1.9,1.8v0c0,1.3-1,1.9-2.2,1.9C461.6,410.9,460.7,410.6,459.9,410z"/>
	<path fill="#898989" d="M465.7,411.9c0.7-0.1,1-0.5,1-1.1h-0.6v-1.6h1.5v1.3c0,1.3-0.6,1.8-1.8,1.9L465.7,411.9z"/>
	<path fill="#898989" d="M22,424.2L22,424.2c0-1.3,1-2,2.5-2c0.7,0,1.2,0.1,1.6,0.3v-0.1c0-0.9-0.5-1.3-1.5-1.3
		c-0.7,0-1.2,0.1-1.7,0.4l-0.4-1.1c0.7-0.3,1.3-0.5,2.3-0.5c0.9,0,1.6,0.2,2,0.7c0.4,0.4,0.7,1.1,0.7,1.9v3.6h-1.3v-0.8
		c-0.4,0.5-1,0.9-2,0.9C23,426,22,425.4,22,424.2z M26.1,423.7v-0.4c-0.4-0.1-0.8-0.2-1.4-0.2c-0.9,0-1.4,0.4-1.4,1v0
		c0,0.6,0.5,0.9,1.2,0.9C25.4,425,26.1,424.5,26.1,423.7z"/>
	<path fill="#898989" d="M29.1,419.9h1.4v0.9c0.4-0.6,0.9-1.1,1.9-1.1c1.4,0,2.1,0.9,2.1,2.3v3.8h-1.4v-3.4c0-0.9-0.5-1.5-1.3-1.5
		c-0.8,0-1.4,0.6-1.4,1.5v3.4h-1.4V419.9z"/>
	<path fill="#898989" d="M35.8,422.9L35.8,422.9c0-2,1.4-3.1,2.8-3.1c1,0,1.6,0.5,2.1,1.1v-3.2h1.4v8.3h-1.4v-1
		c-0.4,0.6-1.1,1.1-2.1,1.1C37.2,426,35.8,424.9,35.8,422.9z M40.7,422.9L40.7,422.9c0-1.2-0.8-2-1.7-2c-0.9,0-1.7,0.7-1.7,1.9v0
		c0,1.2,0.8,1.9,1.7,1.9C39.9,424.8,40.7,424.1,40.7,422.9z"/>
	<path fill="#898989" d="M46.8,424.2L46.8,424.2c0-1.3,1-2,2.5-2c0.7,0,1.2,0.1,1.6,0.3v-0.1c0-0.9-0.5-1.3-1.5-1.3
		c-0.7,0-1.2,0.1-1.7,0.4l-0.4-1.1c0.7-0.3,1.3-0.5,2.3-0.5c0.9,0,1.6,0.2,2,0.7c0.4,0.4,0.7,1.1,0.7,1.9v3.6h-1.3v-0.8
		c-0.4,0.5-1,0.9-2,0.9C47.8,426,46.8,425.4,46.8,424.2z M50.9,423.7v-0.4c-0.4-0.1-0.8-0.2-1.4-0.2c-0.9,0-1.4,0.4-1.4,1v0
		c0,0.6,0.5,0.9,1.2,0.9C50.2,425,50.9,424.5,50.9,423.7z"/>
	<path fill="#898989" d="M53.8,423.7v-3.8h1.4v3.4c0,0.9,0.5,1.5,1.3,1.5c0.8,0,1.4-0.5,1.4-1.5v-3.4h1.4v6h-1.4V425
		c-0.4,0.6-0.9,1.1-1.9,1.1C54.6,426,53.8,425.1,53.8,423.7z"/>
	<path fill="#898989" d="M61.3,424.2v-3.2h-0.8v-1.2h0.8v-1.7h1.4v1.7h1.6v1.2h-1.6v3c0,0.5,0.3,0.8,0.7,0.8c0.3,0,0.6-0.1,0.9-0.2
		v1.1c-0.3,0.2-0.7,0.3-1.2,0.3C62,426,61.3,425.6,61.3,424.2z"/>
	<path fill="#898989" d="M65.7,417.6H67v3.2c0.4-0.6,0.9-1.1,1.9-1.1c1.4,0,2.1,0.9,2.1,2.3v3.8h-1.4v-3.4c0-0.9-0.5-1.5-1.3-1.5
		c-0.8,0-1.4,0.6-1.4,1.5v3.4h-1.4V417.6z"/>
	<path fill="#898989" d="M72.4,422.9L72.4,422.9c0-1.7,1.4-3.2,3.2-3.2c1.8,0,3.2,1.4,3.2,3.1v0c0,1.7-1.4,3.1-3.2,3.1
		C73.8,426.1,72.4,424.6,72.4,422.9z M77.5,422.9L77.5,422.9c0-1.1-0.8-2-1.8-2c-1.1,0-1.8,0.9-1.8,1.9v0c0,1,0.8,1.9,1.8,1.9
		C76.7,424.8,77.5,424,77.5,422.9z"/>
	<path fill="#898989" d="M80.2,419.9h1.4v1.4c0.4-0.9,1.1-1.5,2.1-1.5v1.5h-0.1c-1.2,0-2.1,0.8-2.1,2.4v2.3h-1.4V419.9z"/>
	<path fill="#898989" d="M84.4,422.9L84.4,422.9c0-1.7,1.2-3.2,2.9-3.2c1.9,0,2.9,1.5,2.9,3.2c0,0.1,0,0.3,0,0.4h-4.4
		c0.1,1,0.8,1.5,1.7,1.5c0.7,0,1.2-0.3,1.6-0.7l0.8,0.7c-0.6,0.7-1.4,1.1-2.5,1.1C85.8,426.1,84.4,424.8,84.4,422.9z M88.9,422.5
		c-0.1-0.9-0.6-1.6-1.5-1.6c-0.8,0-1.4,0.7-1.6,1.6H88.9z"/>
	<path fill="#898989" d="M91.3,422.9L91.3,422.9c0-2,1.4-3.1,2.8-3.1c1,0,1.6,0.5,2.1,1.1v-3.2h1.4v8.3h-1.4v-1
		c-0.4,0.6-1.1,1.1-2.1,1.1C92.7,426,91.3,424.9,91.3,422.9z M96.2,422.9L96.2,422.9c0-1.2-0.8-2-1.7-2c-0.9,0-1.7,0.7-1.7,1.9v0
		c0,1.2,0.8,1.9,1.7,1.9C95.4,424.8,96.2,424.1,96.2,422.9z"/>
	<path fill="#898989" d="M104.8,419.2h-2.5v-1.3h6.5v1.3h-2.5v6.7h-1.4V419.2z"/>
	<path fill="#898989" d="M110,417.6h1.4v3.2c0.4-0.6,0.9-1.1,1.9-1.1c1.4,0,2.1,0.9,2.1,2.3v3.8H114v-3.4c0-0.9-0.5-1.5-1.3-1.5
		c-0.8,0-1.4,0.6-1.4,1.5v3.4H110V417.6z"/>
	<path fill="#898989" d="M116.7,422.9L116.7,422.9c0-1.7,1.2-3.2,2.9-3.2c1.9,0,2.9,1.5,2.9,3.2c0,0.1,0,0.3,0,0.4h-4.4
		c0.1,1,0.8,1.5,1.7,1.5c0.7,0,1.2-0.3,1.6-0.7l0.8,0.7c-0.6,0.7-1.4,1.1-2.5,1.1C118.1,426.1,116.7,424.8,116.7,422.9z
		 M121.2,422.5c-0.1-0.9-0.6-1.6-1.5-1.6c-0.8,0-1.4,0.7-1.6,1.6H121.2z"/>
	<path fill="#898989" d="M127.5,417.9h1.3l4.3,5.5v-5.5h1.4v8h-1.2l-4.4-5.7v5.7h-1.4V417.9z"/>
	<path fill="#898989" d="M136.5,417.9h3.1c1.9,0,3,1.1,3,2.7v0c0,1.8-1.4,2.7-3.2,2.7h-1.6v2.6h-1.4V417.9z M139.6,422.1
		c1.1,0,1.7-0.6,1.7-1.4v0c0-0.9-0.7-1.4-1.7-1.4h-1.6v2.9H139.6z"/>
	<path fill="#898989" d="M144.2,417.9h3.6c1,0,1.8,0.3,2.3,0.8c0.4,0.4,0.7,1,0.7,1.7v0c0,1.3-0.8,2.1-1.9,2.4l2.2,3h-1.7l-2-2.8
		h-1.8v2.8h-1.4V417.9z M147.6,421.9c1,0,1.6-0.5,1.6-1.3v0c0-0.9-0.6-1.3-1.7-1.3h-2v2.7H147.6z"/>
	<path fill="#898989" d="M155.5,421.9L155.5,421.9c0-2.3,1.7-4.2,4.1-4.2c1.5,0,2.4,0.5,3.1,1.2l-0.9,1c-0.6-0.6-1.3-1-2.2-1
		c-1.5,0-2.6,1.3-2.6,2.8v0c0,1.6,1.1,2.8,2.6,2.8c1,0,1.6-0.4,2.3-1l0.9,0.9c-0.8,0.9-1.7,1.4-3.2,1.4
		C157.2,426.1,155.5,424.2,155.5,421.9z"/>
	<path fill="#898989" d="M164.2,417.6h1.4v8.3h-1.4V417.6z"/>
	<path fill="#898989" d="M167,424.2L167,424.2c0-1.3,1-2,2.5-2c0.7,0,1.2,0.1,1.6,0.3v-0.1c0-0.9-0.5-1.3-1.5-1.3
		c-0.7,0-1.2,0.1-1.7,0.4l-0.4-1.1c0.7-0.3,1.3-0.5,2.3-0.5c0.9,0,1.6,0.2,2,0.7c0.4,0.4,0.7,1.1,0.7,1.9v3.6h-1.3v-0.8
		c-0.4,0.5-1,0.9-2,0.9C168,426,167,425.4,167,424.2z M171.1,423.7v-0.4c-0.4-0.1-0.8-0.2-1.4-0.2c-0.9,0-1.4,0.4-1.4,1v0
		c0,0.6,0.5,0.9,1.2,0.9C170.4,425,171.1,424.5,171.1,423.7z"/>
	<path fill="#898989" d="M173.6,425.1l0.6-0.9c0.7,0.5,1.4,0.7,2,0.7c0.6,0,0.9-0.3,0.9-0.7v0c0-0.5-0.6-0.6-1.3-0.8
		c-0.9-0.3-1.9-0.6-1.9-1.8v0c0-1.1,0.9-1.8,2.1-1.8c0.8,0,1.6,0.3,2.2,0.7l-0.5,1c-0.6-0.4-1.2-0.6-1.7-0.6c-0.5,0-0.8,0.3-0.8,0.6
		v0c0,0.4,0.7,0.6,1.4,0.9c0.9,0.3,1.9,0.7,1.9,1.8v0c0,1.3-1,1.9-2.2,1.9C175.3,426,174.3,425.7,173.6,425.1z"/>
	<path fill="#898989" d="M179.2,425.1l0.6-0.9c0.7,0.5,1.4,0.7,2,0.7c0.6,0,0.9-0.3,0.9-0.7v0c0-0.5-0.6-0.6-1.3-0.8
		c-0.9-0.3-1.9-0.6-1.9-1.8v0c0-1.1,0.9-1.8,2.1-1.8c0.8,0,1.6,0.3,2.2,0.7l-0.5,1c-0.6-0.4-1.2-0.6-1.7-0.6c-0.5,0-0.8,0.3-0.8,0.6
		v0c0,0.4,0.7,0.6,1.4,0.9c0.9,0.3,1.9,0.7,1.9,1.8v0c0,1.3-1,1.9-2.2,1.9C180.9,426,179.9,425.7,179.2,425.1z"/>
	<path fill="#898989" d="M185.4,417.7h1.5v1.3h-1.5V417.7z M185.5,419.9h1.4v6h-1.4V419.9z"/>
	<path fill="#898989" d="M188.3,422.9L188.3,422.9c0-1.7,1.3-3.2,3.1-3.2c1.1,0,1.8,0.4,2.4,1l-0.9,0.9c-0.4-0.4-0.9-0.8-1.6-0.8
		c-1,0-1.7,0.9-1.7,1.9v0c0,1.1,0.7,1.9,1.8,1.9c0.7,0,1.1-0.3,1.6-0.7l0.8,0.8c-0.6,0.7-1.3,1.1-2.5,1.1
		C189.6,426.1,188.3,424.6,188.3,422.9z"/>
	<path fill="#898989" d="M194.8,424.2L194.8,424.2c0-1.3,1-2,2.5-2c0.7,0,1.2,0.1,1.6,0.3v-0.1c0-0.9-0.5-1.3-1.5-1.3
		c-0.7,0-1.2,0.1-1.7,0.4l-0.4-1.1c0.7-0.3,1.3-0.5,2.3-0.5c0.9,0,1.6,0.2,2,0.7c0.4,0.4,0.7,1.1,0.7,1.9v3.6h-1.3v-0.8
		c-0.4,0.5-1,0.9-2,0.9C195.8,426,194.8,425.4,194.8,424.2z M198.9,423.7v-0.4c-0.4-0.1-0.8-0.2-1.4-0.2c-0.9,0-1.4,0.4-1.4,1v0
		c0,0.6,0.5,0.9,1.2,0.9C198.2,425,198.9,424.5,198.9,423.7z"/>
	<path fill="#898989" d="M201.9,417.6h1.4v8.3h-1.4V417.6z"/>
	<path fill="#898989" d="M208.7,417.9h1.5l2.4,3.8l2.4-3.8h1.5v8h-1.4v-5.7l-2.5,3.8h0l-2.5-3.7v5.7h-1.4V417.9z"/>
	<path fill="#898989" d="M218.4,423.7v-3.8h1.4v3.4c0,0.9,0.5,1.5,1.3,1.5c0.8,0,1.4-0.5,1.4-1.5v-3.4h1.4v6h-1.4V425
		c-0.4,0.6-0.9,1.1-1.9,1.1C219.2,426,218.4,425.1,218.4,423.7z"/>
	<path fill="#898989" d="M225,425.1l0.6-0.9c0.7,0.5,1.4,0.7,2,0.7c0.6,0,0.9-0.3,0.9-0.7v0c0-0.5-0.6-0.6-1.3-0.8
		c-0.9-0.3-1.9-0.6-1.9-1.8v0c0-1.1,0.9-1.8,2.1-1.8c0.8,0,1.6,0.3,2.2,0.7l-0.5,1c-0.6-0.4-1.2-0.6-1.7-0.6c-0.5,0-0.8,0.3-0.8,0.6
		v0c0,0.4,0.7,0.6,1.4,0.9c0.9,0.3,1.9,0.7,1.9,1.8v0c0,1.3-1,1.9-2.2,1.9C226.7,426,225.8,425.7,225,425.1z"/>
	<path fill="#898989" d="M231.2,417.7h1.5v1.3h-1.5V417.7z M231.3,419.9h1.4v6h-1.4V419.9z"/>
	<path fill="#898989" d="M234.2,422.9L234.2,422.9c0-1.7,1.3-3.2,3.1-3.2c1.1,0,1.8,0.4,2.4,1l-0.9,0.9c-0.4-0.4-0.9-0.8-1.6-0.8
		c-1,0-1.7,0.9-1.7,1.9v0c0,1.1,0.7,1.9,1.8,1.9c0.7,0,1.1-0.3,1.6-0.7l0.8,0.8c-0.6,0.7-1.3,1.1-2.5,1.1
		C235.5,426.1,234.2,424.6,234.2,422.9z"/>
	<path fill="#898989" d="M244.2,421.9L244.2,421.9c0-2.3,1.7-4.2,4.1-4.2c1.5,0,2.4,0.5,3.1,1.2l-0.9,1c-0.6-0.6-1.3-1-2.2-1
		c-1.5,0-2.6,1.3-2.6,2.8v0c0,1.6,1.1,2.8,2.6,2.8c1,0,1.6-0.4,2.3-1l0.9,0.9c-0.8,0.9-1.7,1.4-3.2,1.4
		C246,426.1,244.2,424.2,244.2,421.9z"/>
	<path fill="#898989" d="M252.4,422.9L252.4,422.9c0-1.7,1.4-3.2,3.2-3.2c1.8,0,3.2,1.4,3.2,3.1v0c0,1.7-1.4,3.1-3.2,3.1
		C253.8,426.1,252.4,424.6,252.4,422.9z M257.4,422.9L257.4,422.9c0-1.1-0.8-2-1.8-2c-1.1,0-1.8,0.9-1.8,1.9v0c0,1,0.8,1.9,1.8,1.9
		C256.7,424.8,257.4,424,257.4,422.9z"/>
	<path fill="#898989" d="M260.2,419.9h1.4v0.9c0.4-0.5,0.9-1,1.8-1c0.9,0,1.5,0.4,1.8,1.1c0.5-0.6,1.1-1.1,2-1.1
		c1.3,0,2.1,0.8,2.1,2.3v3.8H268v-3.4c0-1-0.4-1.5-1.2-1.5c-0.8,0-1.3,0.5-1.3,1.5v3.4h-1.4v-3.4c0-0.9-0.5-1.5-1.2-1.5
		s-1.3,0.6-1.3,1.5v3.4h-1.4V419.9z"/>
	<path fill="#898989" d="M271.1,419.9h1.4v1c0.4-0.6,1.1-1.1,2.1-1.1c1.4,0,2.8,1.1,2.8,3.1v0c0,2-1.4,3.1-2.8,3.1
		c-1,0-1.6-0.5-2.1-1.1v2.8h-1.4V419.9z M275.9,422.9L275.9,422.9c0-1.2-0.8-2-1.7-2c-0.9,0-1.8,0.8-1.8,1.9v0
		c0,1.2,0.8,1.9,1.8,1.9C275.1,424.8,275.9,424.1,275.9,422.9z"/>
	<path fill="#898989" d="M278.3,424.2L278.3,424.2c0-1.3,1-2,2.5-2c0.7,0,1.2,0.1,1.6,0.3v-0.1c0-0.9-0.5-1.3-1.5-1.3
		c-0.7,0-1.2,0.1-1.7,0.4l-0.4-1.1c0.7-0.3,1.3-0.5,2.3-0.5c0.9,0,1.6,0.2,2,0.7c0.4,0.4,0.6,1.1,0.6,1.9v3.6h-1.3v-0.8
		c-0.4,0.5-1,0.9-2,0.9C279.3,426,278.3,425.4,278.3,424.2z M282.4,423.7v-0.4c-0.4-0.1-0.8-0.2-1.4-0.2c-0.9,0-1.4,0.4-1.4,1v0
		c0,0.6,0.5,0.9,1.2,0.9C281.7,425,282.4,424.5,282.4,423.7z"/>
	<path fill="#898989" d="M285.4,419.9h1.4v0.9c0.4-0.6,0.9-1.1,1.9-1.1c1.4,0,2.1,0.9,2.1,2.3v3.8h-1.4v-3.4c0-0.9-0.5-1.5-1.3-1.5
		c-0.8,0-1.4,0.6-1.4,1.5v3.4h-1.4V419.9z"/>
	<path fill="#898989" d="M292.5,417.7h1.5v1.3h-1.5V417.7z M292.6,419.9h1.4v6h-1.4V419.9z"/>
	<path fill="#898989" d="M295.4,422.9L295.4,422.9c0-1.7,1.4-3.2,3.2-3.2c1.8,0,3.2,1.4,3.2,3.1v0c0,1.7-1.4,3.1-3.2,3.1
		C296.8,426.1,295.4,424.6,295.4,422.9z M300.5,422.9L300.5,422.9c0-1.1-0.8-2-1.8-2c-1.1,0-1.8,0.9-1.8,1.9v0c0,1,0.8,1.9,1.8,1.9
		C299.8,424.8,300.5,424,300.5,422.9z"/>
	<path fill="#898989" d="M303.2,419.9h1.4v0.9c0.4-0.6,0.9-1.1,1.9-1.1c1.4,0,2.1,0.9,2.1,2.3v3.8h-1.4v-3.4c0-0.9-0.5-1.5-1.3-1.5
		c-0.8,0-1.4,0.6-1.4,1.5v3.4h-1.4V419.9z"/>
	<path fill="#898989" d="M310.2,424.3h1.5v1.6h-1.5V424.3z"/>
</g>
<rect x="52.1" y="448.6" fill="#ECEDEE" width="349.1" height="33"/>
<rect x="21.5" y="448.6" fill="#BBCBE5" width="33.6" height="33"/>
<rect x="21.5" y="23" fill="#D1D3D4" width="454.1" height="254.7"/>
<polygon fill="#FFFFFF" points="33.5,458.7 44.7,465.1 33.5,471.6 "/>
<g>
	<path fill="#6D8AC3" d="M64.4,460.4H66v8h-1.7V460.4z"/>
	<path fill="#6D8AC3" d="M67.6,460.4h1.8v1.5h-1.8V460.4z M67.7,462.6h1.7v5.9h-1.7V462.6z"/>
	<path fill="#6D8AC3" d="M70.5,467.7l0.7-1.1c0.6,0.5,1.3,0.7,1.9,0.7c0.5,0,0.7-0.2,0.7-0.4v0c0-0.4-0.6-0.5-1.2-0.7
		c-0.8-0.2-1.8-0.6-1.8-1.8v0c0-1.2,1-1.9,2.2-1.9c0.7,0,1.6,0.3,2.2,0.7l-0.6,1.2c-0.6-0.3-1.2-0.6-1.6-0.6c-0.4,0-0.6,0.2-0.6,0.4
		v0c0,0.3,0.6,0.5,1.2,0.7c0.8,0.3,1.8,0.7,1.8,1.8v0c0,1.3-1,1.9-2.3,1.9C72.2,468.6,71.2,468.3,70.5,467.7z"/>
	<path fill="#6D8AC3" d="M76.6,466.8V464h-0.7v-1.4h0.7v-1.5h1.7v1.5h1.4v1.4h-1.4v2.5c0,0.4,0.2,0.6,0.5,0.6c0.3,0,0.6-0.1,0.8-0.2
		v1.3c-0.4,0.2-0.8,0.3-1.3,0.3C77.3,468.6,76.6,468.2,76.6,466.8z"/>
	<path fill="#6D8AC3" d="M80.5,465.6L80.5,465.6c0-1.7,1.2-3.1,2.9-3.1c2,0,2.9,1.5,2.9,3.2c0,0.1,0,0.3,0,0.4h-4.1
		c0.2,0.8,0.7,1.2,1.4,1.2c0.6,0,1-0.2,1.4-0.6l1,0.8c-0.6,0.7-1.3,1.1-2.4,1.1C81.8,468.6,80.5,467.4,80.5,465.6z M84.6,465.1
		c-0.1-0.7-0.5-1.3-1.2-1.3c-0.7,0-1.1,0.5-1.3,1.3H84.6z"/>
	<path fill="#6D8AC3" d="M87.5,462.6h1.7v0.8c0.4-0.5,0.9-0.9,1.7-0.9c1.3,0,2,0.8,2,2.2v3.8h-1.7v-3.3c0-0.8-0.4-1.2-1-1.2
		c-0.6,0-1,0.4-1,1.2v3.3h-1.7V462.6z"/>
</g>
<rect x="403.5" y="448.5" fill="#ECEDEE" width="35.1" height="33.5"/>
<rect x="440.5" y="448.5" fill="#ECEDEE" width="35" height="33.5"/>
<g>
	<polygon fill="#6E95CD" points="424.2,464.4 420.3,468.3 416.3,464.4 	"/>
	<rect x="419" y="461" fill="#6E95CD" width="2.6" height="4.1"/>
	<rect x="416.1" y="468.7" fill="#6E95CD" width="8.3" height="0.7"/>
</g>
<g>
	<rect x="456.3" y="461" fill="#6E95CD" width="1.7" height="8.4"/>
	<rect x="453" y="464.4" fill="#6E95CD" width="8.3" height="1.6"/>
</g>
<g>
	<line fill="#FFFFFF" x1="21.5" y1="23" x2="475.6" y2="277.7"/>
	
		<rect x="-11.8" y="150" transform="matrix(0.8721 0.4893 -0.4893 0.8721 105.3573 -102.3718)" fill="#FFFFFF" width="520.6" height="0.8"/>
</g>
<g>
	<line fill="#FFFFFF" x1="21.5" y1="277.7" x2="475.6" y2="23"/>
	
		<rect x="248.1" y="-109.9" transform="matrix(0.4895 0.872 -0.872 0.4895 257.9992 -139.9499)" fill="#FFFFFF" width="0.8" height="520.6"/>
</g>
<g>
	<path fill="#58595B" d="M605.9,308.3l2-2.4c1.4,1.1,2.8,1.9,4.6,1.9c1.4,0,2.2-0.5,2.2-1.4v0c0-0.9-0.5-1.3-3.1-2
		c-3.1-0.8-5.1-1.6-5.1-4.7v0c0-2.8,2.2-4.6,5.4-4.6c2.2,0,4.1,0.7,5.7,2l-1.8,2.5c-1.4-0.9-2.7-1.5-4-1.5c-1.3,0-2,0.6-2,1.3v0
		c0,1,0.7,1.3,3.3,2c3.1,0.8,4.9,1.9,4.9,4.6v0c0,3-2.3,4.8-5.6,4.8C610.1,310.7,607.7,309.9,605.9,308.3z"/>
	<path fill="#58595B" d="M623,295.2h3.4v12.3h7.6v3.1h-11V295.2z"/>
	<path fill="#58595B" d="M638,303.9v-8.8h3.4v8.7c0,2.5,1.2,3.8,3.3,3.8c2.1,0,3.3-1.2,3.3-3.7v-8.8h3.4v8.7c0,4.6-2.6,6.9-6.7,6.9
		C640.5,310.7,638,308.4,638,303.9z"/>
	<path fill="#58595B" d="M656.2,302.9L656.2,302.9c0-4.4,3.4-8,8-8c2.8,0,4.4,0.7,6,2.1l-2.1,2.6c-1.2-1-2.2-1.6-4-1.6
		c-2.5,0-4.4,2.2-4.4,4.8v0c0,2.8,1.9,4.9,4.6,4.9c1.2,0,2.3-0.3,3.2-0.9v-2.2h-3.4v-2.9h6.7v6.7c-1.6,1.3-3.7,2.4-6.6,2.4
		C659.4,310.8,656.2,307.4,656.2,302.9z"/>
</g>
<g>
	<path fill="#58595B" d="M605.9,335.8l2-2.4c1.4,1.1,2.8,1.9,4.6,1.9c1.4,0,2.2-0.5,2.2-1.4v0c0-0.9-0.5-1.3-3.1-2
		c-3.1-0.8-5.1-1.6-5.1-4.7v0c0-2.8,2.2-4.6,5.4-4.6c2.2,0,4.1,0.7,5.7,2l-1.8,2.5c-1.4-0.9-2.7-1.5-4-1.5c-1.3,0-2,0.6-2,1.3v0
		c0,1,0.7,1.3,3.3,2c3.1,0.8,4.9,1.9,4.9,4.6v0c0,3-2.3,4.8-5.6,4.8C610.1,338.3,607.7,337.4,605.9,335.8z"/>
	<path fill="#58595B" d="M626.3,325.8h-4.7v-3.1h12.7v3.1h-4.7V338h-3.4V325.8z"/>
	<path fill="#58595B" d="M637.6,330.4L637.6,330.4c0-4.4,3.4-8,8.2-8c4.7,0,8.1,3.5,8.1,7.9v0c0,4.4-3.4,7.9-8.2,7.9
		C641,338.3,637.6,334.8,637.6,330.4z M650.4,330.4L650.4,330.4c0-2.7-1.9-4.9-4.6-4.9c-2.7,0-4.6,2.1-4.6,4.8v0
		c0,2.6,1.9,4.8,4.6,4.8C648.5,335.2,650.4,333,650.4,330.4z"/>
	<path fill="#58595B" d="M659,322.7h7c1.9,0,3.5,0.5,4.5,1.6c0.9,0.9,1.3,2.1,1.3,3.5v0c0,2.5-1.3,4-3.3,4.8l3.7,5.5h-3.9l-3.3-4.9
		h-2.7v4.9H659V322.7z M665.8,330.2c1.6,0,2.6-0.9,2.6-2.2v0c0-1.4-1-2.2-2.7-2.2h-3.4v4.4H665.8z"/>
	<path fill="#58595B" d="M680.7,332l-5.9-9.3h3.9l3.7,6.2l3.7-6.2h3.8l-5.9,9.2v6.1h-3.4V332z"/>
	<path fill="#58595B" d="M706.3,325.8h-4.7v-3.1h12.7v3.1h-4.7V338h-3.4V325.8z"/>
	<path fill="#58595B" d="M719.1,322.7h3.4V338h-3.4V322.7z"/>
	<path fill="#58595B" d="M732,325.8h-4.7v-3.1H740v3.1h-4.7V338H732V325.8z"/>
	<path fill="#58595B" d="M744.7,322.7h3.4V335h7.6v3.1h-11V322.7z"/>
	<path fill="#58595B" d="M760.3,322.7h11.6v3h-8.2v3.1h7.2v3h-7.2v3.2h8.3v3h-11.7V322.7z"/>
</g>
<g>
	<path fill="#58595B" d="M610.5,388.2h-4.7v-3.1h12.7v3.1h-4.7v12.2h-3.4V388.2z"/>
	<path fill="#58595B" d="M623.2,385.1h11.6v3h-8.2v3.1h7.2v3h-7.2v3.2h8.3v3h-11.7V385.1z"/>
	<path fill="#58595B" d="M645.2,385h3.1l6.6,15.4h-3.5L650,397h-6.5l-1.4,3.4h-3.4L645.2,385z M648.8,394.1l-2-5l-2,5H648.8z"/>
	<path fill="#58595B" d="M658,398.2l2-2.4c1.4,1.1,2.8,1.9,4.6,1.9c1.4,0,2.2-0.5,2.2-1.4v0c0-0.9-0.5-1.3-3.1-2
		c-3.1-0.8-5.1-1.6-5.1-4.7v0c0-2.8,2.2-4.6,5.4-4.6c2.2,0,4.1,0.7,5.7,2l-1.8,2.5c-1.4-0.9-2.7-1.5-4-1.5c-1.3,0-2,0.6-2,1.3v0
		c0,1,0.7,1.3,3.3,2c3.1,0.8,4.9,1.9,4.9,4.6v0c0,3-2.3,4.8-5.6,4.8C662.2,400.7,659.9,399.9,658,398.2z"/>
	<path fill="#58595B" d="M675.2,385.1h11.6v3h-8.2v3.1h7.2v3h-7.2v3.2h8.3v3h-11.7V385.1z"/>
	<path fill="#58595B" d="M691.9,385.1h7c1.9,0,3.5,0.5,4.5,1.6c0.9,0.9,1.3,2.1,1.3,3.5v0c0,2.5-1.3,4-3.3,4.8l3.7,5.5h-3.9
		l-3.3-4.9h-2.7v4.9h-3.4V385.1z M698.7,392.6c1.6,0,2.6-0.9,2.6-2.2v0c0-1.4-1-2.2-2.7-2.2h-3.4v4.4H698.7z"/>
	<path fill="#58595B" d="M717.8,392.8L717.8,392.8c0-4.4,3.3-8,8-8c2.9,0,4.6,1,6,2.4l-2.1,2.5c-1.2-1.1-2.4-1.7-3.9-1.7
		c-2.6,0-4.4,2.1-4.4,4.8v0c0,2.6,1.8,4.8,4.4,4.8c1.8,0,2.8-0.7,4-1.8l2.1,2.2c-1.6,1.7-3.3,2.7-6.3,2.7
		C721.1,400.7,717.8,397.3,717.8,392.8z"/>
	<path fill="#58595B" d="M735.6,392.8L735.6,392.8c0-4.4,3.4-8,8.2-8c4.7,0,8.1,3.5,8.1,7.9v0c0,4.4-3.4,7.9-8.2,7.9
		C739,400.7,735.6,397.2,735.6,392.8z M748.3,392.8L748.3,392.8c0-2.7-1.9-4.9-4.6-4.9c-2.7,0-4.6,2.1-4.6,4.8v0
		c0,2.6,1.9,4.8,4.6,4.8C746.5,397.6,748.3,395.5,748.3,392.8z"/>
	<path fill="#58595B" d="M756.9,385.1h6.3c3.7,0,5.9,2.2,5.9,5.3v0c0,3.5-2.8,5.4-6.2,5.4h-2.6v4.6h-3.4V385.1z M763,392.9
		c1.7,0,2.7-1,2.7-2.3v0c0-1.5-1.1-2.3-2.7-2.3h-2.6v4.7H763z"/>
	<path fill="#58595B" d="M777.7,394.4l-5.9-9.3h3.9l3.7,6.2l3.7-6.2h3.8l-5.9,9.2v6.1h-3.4V394.4z"/>
</g>
<rect x="104.8" y="303.8" fill="#58595B" width="487.4" height="0.7"/>
<rect x="471" y="330.7" fill="#58595B" width="121.2" height="0.7"/>
<rect x="475.5" y="393.2" fill="#58595B" width="116.7" height="0.7"/>
</svg>
