<?xml version="1.0" encoding="utf-8"?>
<!-- Generator: Adobe Illustrator 18.1.1, SVG Export Plug-In . SVG Version: 6.00 Build 0)  -->
<svg version="1.1" id="Layer_1" xmlns="http://www.w3.org/2000/svg" xmlns:xlink="http://www.w3.org/1999/xlink" x="0px" y="0px"
	 viewBox="0 0 228.3 181.9" enable-background="new 0 0 228.3 181.9" xml:space="preserve">
<g>
	<path fill="#283744" d="M24.5,14.7h31l71.6,94.1V14.7h33.2v152.8h-28.6l-74-97.1v97.1H24.5V14.7z"/>
</g>
<path fill="#D1D3D4" d="M159.9,168.3h-28.6c-0.4,0-0.8-0.2-1-0.6l-45-97.4l-26.1,97.2c-0.1,0.5-0.6,0.8-1.1,0.8H25
	c-0.3,0-0.7-0.2-0.9-0.4s-0.3-0.6-0.2-1L65,14.1c0.1-0.5,0.6-0.8,1.1-0.8h31c0.4,0,0.8,0.3,1,0.6l43.3,94.4l25.4-94.2
	c0.1-0.5,0.6-0.8,1.1-0.8h33.2c0.3,0,0.7,0.2,0.9,0.4s0.3,0.6,0.2,1l-41,152.8C160.8,168,160.4,168.3,159.9,168.3z M132,166.1h27
	l40.4-150.6h-30.9l-26,96.3c-0.1,0.4-0.5,0.8-1,0.8c-0.5,0-0.9-0.2-1.1-0.6L96.3,15.5H66.9L26.5,166.1h30.9L84,66.8
	c0.1-0.4,0.5-0.8,1-0.8c0.5,0,0.9,0.2,1.1,0.6L132,166.1z"/>
<path fill="#283744" d="M9.1,181.9c-0.6,0-1.1-0.5-1.1-1.1V1.1C8,0.5,8.5,0,9.1,0s1.1,0.5,1.1,1.1v179.7
	C10.2,181.4,9.7,181.9,9.1,181.9z"/>
<path fill="#D1D3D4" d="M169.6,181.9c-0.1,0-0.2,0-0.3,0c-0.6-0.2-0.9-0.8-0.8-1.4L218.1,0.8c0.2-0.6,0.8-0.9,1.4-0.8
	c0.6,0.2,0.9,0.8,0.8,1.4l-49.6,179.7C170.5,181.6,170.1,181.9,169.6,181.9z"/>
<path fill="#283744" d="M17.2,2.2h-16C0.5,2.2,0,1.7,0,1.1S0.5,0,1.1,0h16c0.6,0,1.1,0.5,1.1,1.1S17.8,2.2,17.2,2.2z"/>
<path fill="#D1D3D4" d="M227.2,2.2h-16c-0.6,0-1.1-0.5-1.1-1.1s0.5-1.1,1.1-1.1h16c0.6,0,1.1,0.5,1.1,1.1S227.8,2.2,227.2,2.2z"/>
<path fill="#D1D3D4" d="M177.6,181.9h-16c-0.6,0-1.1-0.5-1.1-1.1s0.5-1.1,1.1-1.1h16c0.6,0,1.1,0.5,1.1,1.1S178.2,181.9,177.6,181.9
	z"/>
<path fill="#283744" d="M17.2,181.9h-16c-0.6,0-1.1-0.5-1.1-1.1s0.5-1.1,1.1-1.1h16c0.6,0,1.1,0.5,1.1,1.1S17.8,181.9,17.2,181.9z"
	/>
</svg>
